# Blender v3.0.0 OBJ File: ''
# www.blender.org
mtllib anubis.mtl
o cad_fibra_sensore_Normalicorrette
v -11.323715 2.542418 -2.233638
v -11.350273 2.613318 -2.174145
v -11.233045 2.606349 -2.179994
v -11.222637 2.550014 -2.227264
v -11.205361 2.602208 -2.183468
v -11.190216 2.555565 -2.222607
v -11.180503 2.596727 -2.188067
v -11.177174 2.558915 -2.219795
v -11.168235 2.592878 -2.191297
v -11.166212 2.562647 -2.216664
v -11.158968 2.588695 -2.194807
v -11.156376 2.567598 -2.212509
v -11.154985 2.586172 -2.196924
v -11.154078 2.569267 -2.211109
v -11.152206 2.583771 -2.198938
v -11.151065 2.572331 -2.208538
v -11.150870 2.582146 -2.200302
v -11.149438 2.578887 -2.203037
v -11.149979 2.580564 -2.201629
v -11.149283 2.577330 -2.204343
v -11.149455 2.575774 -2.205649
v -11.150016 2.574098 -2.207055
v -11.152448 2.570728 -2.209882
v -11.160130 2.565408 -2.214346
v -11.424002 2.541040 -2.234794
v -11.585634 2.607079 -2.179381
v -11.735920 2.557943 -2.220611
v -11.936986 2.578133 -2.203669
v -11.551166 2.545967 -2.230660
v -11.936986 2.576611 -2.204947
v -11.937049 2.576622 -2.204938
v -11.937108 2.576640 -2.204922
v -11.937164 2.576665 -2.204901
v -11.937215 2.576698 -2.204874
v -11.937261 2.576737 -2.204840
v -11.937304 2.576783 -2.204802
v -11.937340 2.576834 -2.204759
v -11.937383 2.576911 -2.204695
v -11.937422 2.577007 -2.204614
v -11.937457 2.577148 -2.204496
v -11.937475 2.577316 -2.204355
v -11.937471 2.577487 -2.204211
v -11.937446 2.577652 -2.204072
v -11.937396 2.577804 -2.203946
v -11.937332 2.577921 -2.203847
v -11.937266 2.578001 -2.203780
v -11.937205 2.578053 -2.203737
v -11.937149 2.578086 -2.203709
v -11.937096 2.578109 -2.203690
v -11.937042 2.578124 -2.203677
v -0.791327 -0.069197 -0.000109
v -0.791327 -0.069196 -4.946607
v -0.791327 -0.049410 -4.946607
v -0.791327 -0.049411 -0.000109
v -1.038652 -0.069196 -4.946607
v -1.038652 -0.069197 -0.000109
v -1.038652 -0.049411 -0.000109
v -1.038652 -0.049410 -4.946607
v -1.038652 -0.069196 -4.946607
v -1.038652 -0.049410 -4.946607
v -0.791327 -0.069196 -4.946607
v -0.791327 -0.049410 -4.946607
v -11.323715 2.542417 2.233420
v -11.233045 2.606347 2.179776
v -11.350273 2.613317 2.173928
v -11.222637 2.550013 2.227047
v -11.205361 2.602207 2.183251
v -11.190216 2.555564 2.222389
v -11.180503 2.596726 2.187850
v -11.177174 2.558914 2.219578
v -11.168235 2.592877 2.191079
v -11.166212 2.562646 2.216446
v -11.158968 2.588694 2.194589
v -11.156376 2.567596 2.212292
v -11.154985 2.586171 2.196706
v -11.154078 2.569266 2.210891
v -11.152206 2.583770 2.198721
v -11.151065 2.572330 2.208321
v -11.150870 2.582145 2.200084
v -11.149438 2.578886 2.202820
v -11.149979 2.580563 2.201412
v -11.149283 2.577328 2.204126
v -11.149455 2.575773 2.205431
v -11.150016 2.574097 2.206837
v -11.152448 2.570727 2.209665
v -11.160130 2.565408 2.214129
v -11.424002 2.541039 2.234577
v -11.585634 2.607078 2.179163
v -11.735920 2.557942 2.220393
v -11.936986 2.578132 2.203452
v -11.551166 2.545966 2.230443
v -11.936986 2.576610 2.204729
v -11.937049 2.576621 2.204720
v -11.937108 2.576639 2.204705
v -11.937164 2.576664 2.204683
v -11.937215 2.576697 2.204656
v -11.937261 2.576736 2.204623
v -11.937304 2.576782 2.204585
v -11.937340 2.576833 2.204542
v -11.937383 2.576910 2.204477
v -11.937422 2.577006 2.204396
v -11.937457 2.577147 2.204279
v -11.937475 2.577315 2.204137
v -11.937471 2.577486 2.203994
v -11.937446 2.577652 2.203855
v -11.937396 2.577803 2.203728
v -11.937332 2.577920 2.203629
v -11.937266 2.578000 2.203563
v -11.937205 2.578052 2.203519
v -11.937149 2.578085 2.203491
v -11.937096 2.578108 2.203472
v -11.937042 2.578123 2.203460
v -11.224318 0.707394 -0.101129
v -11.194304 2.600020 2.185085
v -11.171782 2.594127 2.190030
v -11.181021 0.695545 -0.091186
v -11.162798 2.590627 2.192967
v -11.166429 0.689065 -0.085749
v -11.158544 2.588456 2.194789
v -11.159698 0.684964 -0.082308
v -11.154607 2.585888 2.196944
v -11.154906 0.681067 -0.079038
v -11.152143 2.583704 2.198776
v -11.152534 0.678428 -0.076824
v -11.150822 2.582072 2.200145
v -11.150721 0.675554 -0.074412
v -11.149945 2.580486 2.201477
v -11.149683 0.672788 -0.072091
v -11.149421 2.578804 2.202888
v -11.149297 0.670235 -0.069949
v -11.149286 2.577194 2.204239
v -11.149411 0.667854 -0.067951
v -11.149508 2.575543 2.205624
v -11.150052 0.665302 -0.065810
v -11.150013 2.574104 2.206831
v -11.151231 0.662793 -0.063704
v -11.150778 2.572737 2.207978
v -11.152870 0.660440 -0.061730
v -11.151767 2.571456 2.209054
v -11.154877 0.658254 -0.059896
v -11.152928 2.570261 2.210057
v -11.157964 0.655590 -0.057660
v -11.154679 2.568795 2.211287
v -11.163156 0.652061 -0.054699
v -11.157583 2.566835 2.212931
v -11.170409 0.648189 -0.051450
v -11.162331 2.564322 2.215039
v -11.178122 0.644854 -0.048652
v -11.170008 2.561218 2.217644
v -11.197687 0.638326 -0.043174
v -11.195049 2.554522 2.223263
v -11.248897 0.627309 -0.033930
v -11.227942 2.549355 2.227599
v -11.403622 0.613163 -0.022060
v -11.330881 2.542121 2.233669
v -11.936986 2.576610 2.204729
v -12.462119 0.668376 -0.068389
v -11.553267 2.546076 2.230350
v -11.810600 0.616860 -0.025161
v -12.462227 0.668394 -0.068404
v -11.937049 2.576621 2.204720
v -12.462326 0.668424 -0.068429
v -11.937108 2.576639 2.204705
v -12.462418 0.668467 -0.068465
v -11.937164 2.576664 2.204683
v -12.462502 0.668521 -0.068511
v -11.937215 2.576697 2.204656
v -12.462580 0.668586 -0.068565
v -11.937261 2.576736 2.204623
v -12.462649 0.668662 -0.068629
v -11.937304 2.576782 2.204585
v -12.462711 0.668748 -0.068701
v -11.937340 2.576833 2.204542
v -12.462782 0.668876 -0.068809
v -11.937383 2.576910 2.204477
v -12.462847 0.669037 -0.068943
v -11.937422 2.577006 2.204396
v -12.462907 0.669271 -0.069140
v -11.937457 2.577147 2.204279
v -12.462938 0.669551 -0.069375
v -11.937475 2.577315 2.204137
v -12.462932 0.669836 -0.069614
v -11.937471 2.577486 2.203994
v -12.462886 0.670112 -0.069846
v -11.937446 2.577652 2.203855
v -12.462804 0.670364 -0.070057
v -11.937396 2.577803 2.203728
v -12.462698 0.670561 -0.070222
v -11.937332 2.577920 2.203629
v -12.462589 0.670693 -0.070333
v -11.937266 2.578000 2.203563
v -12.462487 0.670779 -0.070405
v -11.937205 2.578052 2.203519
v -12.462394 0.670835 -0.070452
v -11.937149 2.578085 2.203491
v -12.462302 0.670873 -0.070484
v -11.937096 2.578108 2.203472
v -12.462214 0.670898 -0.070505
v -11.937042 2.578123 2.203460
v -12.462119 0.670913 -0.070518
v -11.936986 2.578132 2.203452
v -11.851606 0.720537 -0.112157
v -11.542868 2.609334 2.177270
v -11.415770 0.727414 -0.117927
v -11.276099 2.610209 2.176536
v -11.319667 0.721174 -0.112691
v -11.235168 2.606599 2.179565
v -0.414832 -0.019871 -14.740672
v -0.933042 0.124329 -14.740672
v -0.627296 0.103741 -14.740672
v -0.494453 0.072952 -14.740672
v -0.455574 0.057823 -14.740672
v -0.418810 0.037827 -14.740672
v -0.406055 0.027759 -14.740672
v -0.392358 0.013204 -14.740672
v -0.396449 -0.014546 -14.740672
v -0.390389 0.010407 -14.740672
v -0.390102 -0.008065 -14.740672
v -0.389163 0.008199 -14.740672
v -0.387962 -0.003037 -14.740672
v -0.388227 0.005891 -14.740672
v -0.387440 0.001017 -14.740672
v -0.387640 0.003489 -14.740672
v -0.387572 -0.001016 -14.740672
v -0.388746 -0.005395 -14.740672
v -0.392008 -0.010675 -14.740672
v -0.394090 -0.012762 -14.740672
v -0.399871 -0.016422 -14.740672
v -0.404997 -0.018217 -14.740672
v -2.022680 0.001045 -14.740672
v -2.022967 0.002849 -14.740672
v -1.328290 0.105194 -14.740672
v -2.022723 0.001046 -14.740672
v -2.022764 0.001051 -14.740672
v -2.022816 0.001066 -14.740672
v -2.022871 0.001091 -14.740672
v -2.022928 0.001131 -14.740672
v -2.022993 0.001193 -14.740672
v -2.023071 0.001299 -14.740672
v -2.023161 0.001479 -14.740672
v -2.023238 0.001714 -14.740672
v -2.023286 0.001967 -14.740672
v -2.023303 0.002190 -14.740672
v -2.023297 0.002348 -14.740672
v -2.023278 0.002477 -14.740672
v -2.023256 0.002565 -14.740672
v -2.023229 0.002634 -14.740672
v -2.023205 0.002681 -14.740672
v -2.023177 0.002722 -14.740672
v -2.023146 0.002759 -14.740672
v -2.023111 0.002789 -14.740672
v -2.023072 0.002814 -14.740672
v -2.023025 0.002835 -14.740672
v -0.414832 -0.019879 14.740452
v -0.627296 0.103732 14.740452
v -0.933042 0.124321 14.740452
v -0.494453 0.072944 14.740452
v -0.455574 0.057815 14.740452
v -0.418810 0.037818 14.740452
v -0.406055 0.027750 14.740452
v -0.392358 0.013196 14.740452
v -0.396449 -0.014554 14.740452
v -0.390389 0.010398 14.740452
v -0.390102 -0.008074 14.740452
v -0.389163 0.008190 14.740452
v -0.387962 -0.003046 14.740452
v -0.388227 0.005882 14.740452
v -0.387440 0.001009 14.740452
v -0.387640 0.003481 14.740452
v -0.387572 -0.001024 14.740452
v -0.388746 -0.005403 14.740452
v -0.392008 -0.010683 14.740452
v -0.394090 -0.012770 14.740452
v -0.399871 -0.016430 14.740452
v -0.404997 -0.018225 14.740452
v -2.022680 0.001037 14.740452
v -1.328290 0.105186 14.740452
v -2.022967 0.002841 14.740452
v -2.022723 0.001038 14.740452
v -2.022764 0.001043 14.740452
v -2.022816 0.001058 14.740452
v -2.022871 0.001083 14.740452
v -2.022928 0.001123 14.740452
v -2.022993 0.001185 14.740452
v -2.023071 0.001291 14.740452
v -2.023161 0.001471 14.740452
v -2.023238 0.001706 14.740452
v -2.023286 0.001958 14.740452
v -2.023303 0.002182 14.740452
v -2.023297 0.002340 14.740452
v -2.023278 0.002469 14.740452
v -2.023256 0.002556 14.740452
v -2.023229 0.002626 14.740452
v -2.023205 0.002672 14.740452
v -2.023177 0.002714 14.740452
v -2.023146 0.002750 14.740452
v -2.023111 0.002781 14.740452
v -2.023072 0.002806 14.740452
v -2.023025 0.002827 14.740452
v -2.562566 0.003514 -7.370390
v -2.562691 0.003416 -7.370390
v -2.562789 0.003275 -7.370390
v -2.562858 0.003096 -7.370390
v -2.562917 0.002648 -7.370390
v -2.562754 0.001632 -7.370390
v -2.562557 0.001210 -7.370390
v -2.562433 0.001050 -7.370390
v -2.562295 0.000933 -7.370390
v -2.562144 0.000863 -7.370390
v -2.562144 0.000859 7.370172
v -2.562295 0.000929 7.370172
v -2.562433 0.001046 7.370172
v -2.562557 0.001206 7.370172
v -2.562754 0.001628 7.370172
v -2.562878 0.002132 7.370172
v -2.562917 0.002644 7.370172
v -2.562858 0.003092 7.370172
v -2.562789 0.003271 7.370172
v -2.562691 0.003412 7.370172
v -2.562566 0.003509 7.370172
v -2.562878 0.002136 -7.370390
v -2.662307 0.003696 -4.913630
v -2.742398 0.003745 -0.000109
v -2.662307 0.003694 4.913412
v -2.661848 0.000805 4.913412
v -2.741928 0.000797 -0.000109
v -2.661848 0.000808 -4.913630
v -2.742538 0.003637 -0.000109
v -2.742646 0.003480 -0.000109
v -2.742723 0.003280 -0.000109
v -2.742788 0.002782 -0.000109
v -2.742745 0.002213 -0.000109
v -2.742607 0.001652 -0.000109
v -2.742387 0.001183 -0.000109
v -2.742250 0.001005 -0.000109
v -2.742097 0.000875 -0.000109
v -0.076552 0.000787 -6.551470
v -2.052186 -0.003537 -0.000109
v -0.004808 0.000732 1.637731
v -1.363064 -0.029226 -0.000109
v -0.673656 -0.053780 -0.000109
v -0.328764 -0.057277 -0.000109
v -0.156328 -0.050100 -0.000109
v -0.113425 -0.045666 -0.000109
v -0.071876 -0.037161 -0.000109
v -0.049525 -0.034653 -0.000109
v -0.038044 -0.033279 -0.000109
v -0.026861 -0.030772 -0.000109
v -0.016599 -0.026285 -0.000109
v -0.008056 -0.019298 -0.000109
v -0.004721 -0.014874 -0.000109
v -0.002182 -0.009943 -0.000109
v -0.000577 -0.004671 -0.000109
v -0.000947 0.007575 -0.000109
v -0.179448 0.121339 -0.000109
v -0.007398 0.020015 -0.000109
v -0.003550 0.014023 -0.000109
v -0.031373 0.045694 -0.000109
v -0.011956 0.025620 -0.000109
v -0.077379 0.077179 -0.000109
v -0.495369 0.185556 -0.000109
v -0.817868 0.206295 -0.000109
v -1.463424 0.184970 -0.000109
v -2.105574 0.113911 -0.000109
v -11.224318 0.707394 0.100910
v -11.171782 2.594128 -2.190248
v -11.194304 2.600022 -2.185302
v -11.181021 0.695545 0.090968
v -11.162798 2.590629 -2.193184
v -11.166429 0.689065 0.085531
v -11.158544 2.588458 -2.195006
v -11.159698 0.684964 0.082089
v -11.154607 2.585890 -2.197161
v -11.154906 0.681067 0.078819
v -11.152143 2.583705 -2.198994
v -11.152534 0.678428 0.076605
v -11.150822 2.582074 -2.200363
v -11.150721 0.675554 0.074194
v -11.149945 2.580487 -2.201694
v -11.149683 0.672788 0.071873
v -11.149421 2.578805 -2.203105
v -11.149297 0.670235 0.069731
v -11.149286 2.577195 -2.204456
v -11.149411 0.667854 0.067732
v -11.149508 2.575544 -2.205842
v -11.150052 0.665302 0.065591
v -11.150013 2.574106 -2.207049
v -11.151231 0.662793 0.063485
v -11.150778 2.572739 -2.208196
v -11.152870 0.660440 0.061511
v -11.151767 2.571457 -2.209271
v -11.154877 0.658254 0.059677
v -11.152928 2.570262 -2.210274
v -11.157964 0.655590 0.057442
v -11.154679 2.568796 -2.211504
v -11.163156 0.652061 0.054481
v -11.157583 2.566836 -2.213149
v -11.170409 0.648189 0.051232
v -11.162331 2.564323 -2.215257
v -11.178122 0.644854 0.048434
v -11.170008 2.561219 -2.217861
v -11.197687 0.638326 0.042955
v -11.195049 2.554523 -2.223481
v -11.248897 0.627309 0.033711
v -11.227942 2.549356 -2.227816
v -11.403622 0.613163 0.021841
v -11.330881 2.542122 -2.233886
v -11.936986 2.576611 -2.204947
v -11.553267 2.546077 -2.230567
v -12.462119 0.668376 0.068170
v -11.810600 0.616860 0.024943
v -12.462227 0.668394 0.068185
v -11.937049 2.576622 -2.204938
v -12.462326 0.668424 0.068211
v -11.937108 2.576640 -2.204922
v -12.462418 0.668467 0.068247
v -11.937164 2.576665 -2.204901
v -12.462502 0.668521 0.068292
v -11.937215 2.576698 -2.204874
v -12.462580 0.668586 0.068347
v -11.937261 2.576737 -2.204840
v -12.462649 0.668662 0.068411
v -11.937304 2.576783 -2.204802
v -12.462711 0.668748 0.068483
v -11.937340 2.576834 -2.204759
v -12.462782 0.668876 0.068590
v -11.937383 2.576911 -2.204695
v -12.462847 0.669037 0.068725
v -11.937422 2.577007 -2.204614
v -12.462907 0.669271 0.068921
v -11.937457 2.577148 -2.204496
v -12.462938 0.669551 0.069157
v -11.937475 2.577316 -2.204355
v -12.462932 0.669836 0.069396
v -11.937471 2.577487 -2.204211
v -12.462886 0.670112 0.069627
v -11.937446 2.577652 -2.204072
v -12.462804 0.670364 0.069839
v -11.937396 2.577804 -2.203946
v -12.462698 0.670561 0.070004
v -11.937332 2.577921 -2.203847
v -12.462589 0.670693 0.070114
v -11.937266 2.578001 -2.203780
v -12.462487 0.670779 0.070187
v -11.937205 2.578053 -2.203737
v -12.462394 0.670835 0.070233
v -11.937149 2.578086 -2.203709
v -12.462302 0.670873 0.070266
v -11.937096 2.578109 -2.203690
v -12.462214 0.670898 0.070286
v -11.937042 2.578124 -2.203677
v -12.462119 0.670913 0.070299
v -11.936986 2.578133 -2.203669
v -11.851606 0.720537 0.111939
v -11.542868 2.609335 -2.177488
v -11.415770 0.727414 0.117709
v -11.276099 2.610210 -2.176753
v -11.319667 0.721174 0.112473
v -11.235168 2.606600 -2.179783
v -12.573885 0.641616 -0.148783
v -12.573885 0.693312 -0.157515
v -12.573885 0.667098 -0.155317
v -12.573885 0.617578 -0.138098
v -12.573885 0.595655 -0.123558
v -12.573885 0.576460 -0.105570
v -12.573885 0.560529 -0.084637
v -12.573885 0.548306 -0.061343
v -12.573885 0.540133 -0.036338
v -12.573885 0.536239 -0.010322
v -12.573885 0.536731 0.015980
v -12.573885 0.541597 0.041832
v -12.573885 0.550391 0.065844
v -12.573885 0.562956 0.088116
v -12.573885 0.578961 0.108059
v -12.573885 0.597985 0.125147
v -12.573885 0.619524 0.138930
v -12.573885 0.643011 0.149043
v -12.573885 0.667825 0.155219
v -12.573885 0.693312 0.157296
v -12.573885 0.719527 0.155098
v -12.573885 0.745009 0.148565
v -12.573885 0.769047 0.137879
v -12.573885 0.790970 0.123340
v -12.573885 0.810165 0.105352
v -12.573885 0.826096 0.084419
v -12.573885 0.838319 0.061124
v -12.573885 0.846492 0.036120
v -12.573885 0.850386 0.010104
v -12.573885 0.849894 -0.016198
v -12.573885 0.845028 -0.042050
v -12.573885 0.836464 -0.065563
v -12.573885 0.824282 -0.087422
v -12.573885 0.808291 -0.107610
v -12.573885 0.789222 -0.124921
v -12.573885 0.767586 -0.138890
v -12.573885 0.743961 -0.149144
v -12.573885 0.718980 -0.155408
v 3.442874 0.362447 0.059201
v 2.466510 0.167925 -0.037294
v 3.442874 0.355905 0.025727
v 3.442874 0.354553 -0.008353
v 2.466510 0.191689 -0.102364
v 3.442874 0.358424 -0.042239
v 3.442874 0.367426 -0.075137
v 2.466510 0.234499 -0.162248
v 3.442874 0.381348 -0.106272
v 2.466510 0.294202 -0.213884
v 3.442874 0.399864 -0.134915
v 3.442874 0.422538 -0.160394
v 2.466510 0.367781 -0.254629
v 3.442874 0.448838 -0.182109
v 2.466510 0.451514 -0.282394
v 3.442874 0.478148 -0.199551
v 3.442874 0.509778 -0.212311
v -8.620246 0.538752 -0.029901
v -8.620246 0.536031 0.006130
v -8.620246 0.657418 -0.153368
v -8.620246 0.623415 -0.141144
v -8.620246 0.593095 -0.121489
v -8.620246 0.568056 -0.095437
v -8.620246 0.549618 -0.064362
v 1.715143 0.051261 0.012749
v 1.484678 0.432767 -0.340546
v 1.484678 0.551612 -0.351153
v 1.484678 0.036824 -0.069566
v 1.484678 0.027766 -0.030528
v 0.189524 -0.034688 -0.000081
v -0.753183 -0.031160 -0.042102
v -3.348716 -0.009810 0.001714
v -2.730002 -0.031160 -0.042102
v -3.224104 -0.020301 -0.040838
v -3.712748 0.073995 -0.029862
v -3.571399 0.032983 0.004828
v -4.538854 0.383145 0.030304
v -4.679328 0.428402 -0.011251
v -4.823923 0.470417 0.036653
v -5.167021 0.523894 0.004168
v -4.679328 0.427640 0.011306
v -5.112345 0.523256 0.040497
v -5.545260 0.541597 0.041832
v -5.655018 0.536031 0.006130
v -6.643428 0.536031 0.006130
v -5.545260 0.693312 -0.157515
v -6.643428 0.657418 -0.153368
v -5.655018 0.657418 -0.153368
v -4.679328 0.637814 -0.196316
v -3.407334 0.687999 -0.353467
v -3.712748 0.574864 -0.334190
v -2.730002 0.556145 -0.375183
v -2.071062 0.687665 -0.365786
v -0.753183 0.556145 -0.375183
v 0.828091 0.684068 -0.361136
v 3.442874 0.576993 -0.222702
v 3.442874 0.542986 -0.220089
v -6.643428 0.538752 -0.029901
v -5.655018 0.538752 -0.029901
v -5.167021 0.527516 -0.032808
v -4.679328 0.439091 -0.055658
v -6.643428 0.549618 -0.064362
v -6.643428 0.568056 -0.095437
v -5.655018 0.549618 -0.064362
v -5.167021 0.539683 -0.068069
v -4.679328 0.461492 -0.097213
v -5.655018 0.568056 -0.095437
v -4.679328 0.494468 -0.133765
v -6.643428 0.593095 -0.121489
v -6.643428 0.623415 -0.141144
v -5.655018 0.593095 -0.121489
v -4.679328 0.536334 -0.163419
v -5.655018 0.623415 -0.141144
v -4.679328 0.584948 -0.184637
v -3.712748 0.082736 -0.066993
v -3.224104 -0.009443 -0.081856
v -2.730002 -0.020058 -0.083567
v -3.712748 0.118891 -0.138274
v -3.224104 0.033489 -0.160304
v -2.730002 0.023654 -0.162841
v -0.753183 -0.020058 -0.083567
v -0.753183 0.023654 -0.162841
v -3.712748 0.178300 -0.202613
v -2.730002 0.094065 -0.233955
v -3.712748 0.257988 -0.256768
v -2.730002 0.187647 -0.293343
v -0.753183 0.094065 -0.233955
v -0.753183 0.187647 -0.293343
v 1.484678 0.074508 -0.144541
v 1.484678 0.136569 -0.212257
v 1.484678 0.219899 -0.269300
v -3.712748 0.353953 -0.298010
v -2.730002 0.299707 -0.338030
v -3.712748 0.461378 -0.324258
v -2.730002 0.424628 -0.365773
v -0.753183 0.299707 -0.338030
v -0.753183 0.424628 -0.365773
v 1.484678 0.320312 -0.312795
v 3.442874 0.369220 0.079754
v 3.442874 0.377956 0.099553
v -8.620246 0.597986 0.125146
v -8.620246 0.643010 0.149044
v -8.620246 0.550390 0.065845
v -8.620246 0.562955 0.088117
v 1.484678 0.281836 0.301330
v 3.442874 0.576993 0.222483
v 0.652653 0.427277 0.363163
v -0.753183 0.241753 0.317490
v -2.422497 0.424718 0.365568
v -2.730002 0.241753 0.317490
v -3.446283 0.443814 0.350760
v -3.712748 0.315911 0.286385
v -4.812864 0.658851 0.184018
v -4.679328 0.565322 0.181708
v -5.545260 0.693312 0.157296
v -5.167021 0.537795 0.065776
v -5.655018 0.643010 0.149044
v -6.643428 0.643010 0.149044
v -8.620246 0.578962 0.108058
v -6.643428 0.550390 0.065845
v -5.655018 0.550390 0.065845
v -4.679328 0.438709 0.065238
v -3.712748 0.080105 0.063303
v -0.753183 -0.026529 0.062724
v -3.224104 -0.015517 0.062784
v -2.730002 -0.026529 0.062724
v 1.484678 0.034405 0.067344
v 3.442874 0.541950 0.219709
v 3.442874 0.507782 0.211452
v 3.442874 0.475342 0.197917
v 1.484678 0.146949 0.225168
v 3.442874 0.445436 0.179444
v 3.442874 0.418810 0.156496
v 1.484678 0.096041 0.177025
v 3.442874 0.396127 0.129643
v 1.484678 0.058170 0.123920
v -6.643428 0.597986 0.125146
v -5.655018 0.597986 0.125146
v -4.679328 0.500460 0.146211
v -6.643428 0.578962 0.108058
v -6.643428 0.562955 0.088117
v -5.655018 0.578962 0.108058
v -4.679328 0.474439 0.122266
v -5.655018 0.562955 0.088117
v -4.679328 0.453668 0.095027
v -5.167021 0.550631 0.088896
v -3.712748 0.187243 0.213704
v -2.730002 0.094098 0.233756
v -0.753183 0.094098 0.233756
v -3.712748 0.138725 0.167804
v -2.730002 0.038887 0.181331
v -3.712748 0.102673 0.117196
v -2.730002 -0.001708 0.123780
v -3.224104 0.009071 0.123100
v -0.753183 0.038887 0.181331
v -0.753183 -0.001708 0.123780
v 3.442874 0.791538 -0.059419
v 2.466510 0.965019 0.037114
v 3.442874 0.798081 -0.025946
v 3.442874 0.799432 0.008134
v 2.466510 0.941110 0.102222
v 3.442874 0.795561 0.042021
v 3.442874 0.786559 0.074918
v 2.466510 0.898279 0.162138
v 3.442874 0.772637 0.106054
v 2.466510 0.838640 0.213795
v 3.442874 0.754122 0.134697
v 3.442874 0.731448 0.160175
v 2.466510 0.765176 0.254545
v 3.442874 0.705147 0.181890
v 2.466510 0.681574 0.282294
v 3.442874 0.675838 0.199332
v 3.442874 0.644208 0.212092
v -8.620246 0.847873 0.029683
v -8.620246 0.850595 -0.006348
v -8.620246 0.729207 0.153149
v -8.620246 0.763210 0.140925
v -8.620246 0.793530 0.121270
v -8.620246 0.818569 0.095219
v -8.620246 0.837007 0.064144
v 3.442874 0.610999 0.219870
v 1.484678 1.090859 0.030312
v 1.484678 1.081748 0.069355
v 1.304443 1.108437 -0.006582
v 1.484678 0.685862 0.340369
v 1.484678 0.567062 0.350963
v -0.753183 1.143543 0.041884
v -1.192476 1.147259 -0.000109
v -2.730002 1.143543 0.041884
v -3.330606 1.135414 -0.001753
v -3.712748 1.089003 0.029646
v -4.821471 0.882666 -0.036827
v -4.679328 0.905752 -0.011502
v -4.679328 0.904899 0.011076
v -5.545260 0.845028 -0.042050
v -5.655018 0.850595 -0.006348
v -6.643428 0.850595 -0.006348
v -6.643428 0.729207 0.153149
v -5.655018 0.729207 0.153149
v -3.712748 0.588177 0.333996
v -4.679328 0.695667 0.196157
v -2.730002 0.556238 0.374965
v -0.753183 0.556238 0.374965
v -6.643428 0.847873 0.029683
v -5.655018 0.847873 0.029683
v -4.679328 0.894108 0.055518
v -6.643428 0.837007 0.064144
v -6.643428 0.818569 0.095219
v -5.655018 0.837007 0.064144
v -4.679328 0.871692 0.097099
v -5.655018 0.818569 0.095219
v -4.679328 0.838763 0.133664
v -6.643428 0.793530 0.121270
v -6.643428 0.763210 0.140925
v -5.655018 0.793530 0.121270
v -4.679328 0.796979 0.163316
v -4.679328 0.748458 0.184514
v -3.712748 1.080216 0.066780
v -2.730002 1.132441 0.083349
v -3.712748 1.044011 0.138071
v -2.730002 1.088729 0.162622
v -0.753183 1.132441 0.083349
v -0.753183 1.088729 0.162622
v -3.712748 0.984594 0.202421
v -2.730002 1.018318 0.233736
v -3.712748 0.904928 0.256584
v -2.730002 0.924736 0.293125
v -0.753183 1.018318 0.233736
v -0.753183 0.924736 0.293125
v 1.484678 1.044006 0.144340
v 1.484678 0.981936 0.212069
v 1.484678 0.898632 0.269122
v -3.712748 0.809003 0.297830
v -2.730002 0.812676 0.337811
v -3.712748 0.701625 0.324076
v -2.730002 0.687755 0.365554
v -0.753183 0.812676 0.337811
v -0.753183 0.687755 0.365554
v 1.484678 0.798265 0.312622
v 1.304443 1.063625 -0.143771
v 1.484678 1.081398 -0.077395
v 3.442874 0.762201 -0.123581
v 3.442874 0.774235 -0.103274
v 3.442874 0.784051 -0.081806
v -1.192476 1.100551 -0.146244
v -0.753183 1.135464 -0.074664
v -8.620246 0.836464 -0.065563
v -6.643428 0.836464 -0.065563
v -5.545260 0.824282 -0.087422
v -3.712748 1.080172 -0.072982
v -3.330606 1.089723 -0.143939
v -4.821471 0.858688 -0.094748
v -4.679328 0.894299 -0.067315
v -2.730002 1.135464 -0.074664
v -5.655018 0.836464 -0.065563
v 1.484678 0.790547 -0.317833
v 3.442874 0.613290 -0.219723
v 3.442874 0.648616 -0.210864
v 1.484678 0.897305 -0.273751
v 3.442874 0.682024 -0.196363
v 3.442874 0.712621 -0.176609
v 1.484678 0.985170 -0.214299
v 3.442874 0.739588 -0.152130
v -8.620246 0.799111 -0.116656
v -8.620246 0.767585 -0.138889
v -8.620246 0.731599 -0.152788
v -4.679328 0.844099 -0.137274
v -3.712748 0.988490 -0.203456
v -2.730002 1.031418 -0.223133
v -0.753183 1.031418 -0.223133
v -0.753183 0.819060 -0.336049
v -2.730002 0.819060 -0.336049
v -4.679328 0.748536 -0.188271
v -6.643428 0.731599 -0.152788
v -6.643428 0.799111 -0.116656
v -5.655018 0.799111 -0.116656
v -6.643428 0.767585 -0.138889
v -4.679328 0.800164 -0.167682
v -5.655018 0.767585 -0.138889
v -2.730002 0.935811 -0.287597
v -3.712748 0.904725 -0.260115
v -0.753183 0.935811 -0.287597
v -0.791327 -0.069197 -0.000109
v -1.038652 -0.069197 -0.000109
v -0.791327 -0.049411 -0.000109
v -1.038652 -0.049411 -0.000109
vn -0.0000 0.6428 -0.7660
vn -0.0000 0.6428 -0.7661
vn 0.0001 0.6426 -0.7662
vn -0.0000 0.6430 -0.7658
vn -0.0003 0.6425 -0.7663
vn 0.0001 0.6432 -0.7657
vn -0.0003 0.6452 -0.7640
vn -0.0014 0.6438 -0.7652
vn 0.0014 0.6416 -0.7671
vn -0.0004 0.6434 -0.7655
vn -0.0001 0.6425 -0.7663
vn -0.0001 0.6427 -0.7661
vn -0.0003 0.6479 -0.7617
vn 0.0007 0.6403 -0.7681
vn 0.0001 0.6422 -0.7666
vn -0.0007 0.6442 -0.7649
vn -0.0040 0.6403 -0.7681
vn -0.0040 0.6440 -0.7650
vn 0.0076 0.6468 -0.7627
vn 0.0156 0.6423 -0.7663
vn -0.0117 0.6426 -0.7662
vn -0.0076 0.6540 -0.7565
vn 0.0040 0.6467 -0.7627
vn 0.0010 0.6295 -0.7770
vn -0.0002 0.6466 -0.7628
vn -0.0004 0.6409 -0.7677
vn -0.0005 0.6446 -0.7645
vn -0.0009 0.6391 -0.7692
vn -0.0031 0.6411 -0.7675
vn 0.0260 0.6530 -0.7569
vn -0.0340 0.6384 -0.7690
vn 0.0163 0.6557 -0.7548
vn 0.0038 0.6198 -0.7848
vn -0.0644 0.8489 -0.5246
vn 1.0000 0.0000 0.0000
vn 0.0000 -1.0000 -0.0000
vn -1.0000 0.0000 0.0000
vn 0.0000 1.0000 0.0000
vn 0.0000 0.0000 -1.0000
vn -0.0000 0.6428 0.7660
vn 0.0000 0.6428 0.7661
vn -0.0001 0.6426 0.7662
vn 0.0000 0.6431 0.7658
vn -0.0001 0.6425 0.7663
vn 0.0001 0.6432 0.7657
vn 0.0008 0.6452 0.7640
vn -0.0014 0.6439 0.7651
vn 0.0011 0.6416 0.7671
vn -0.0005 0.6435 0.7654
vn 0.0002 0.6425 0.7663
vn -0.0003 0.6427 0.7662
vn -0.0006 0.6471 0.7624
vn -0.0009 0.6402 0.7682
vn -0.0021 0.6421 0.7666
vn 0.0009 0.6442 0.7648
vn -0.0012 0.6403 0.7681
vn -0.0054 0.6438 0.7652
vn 0.0041 0.6463 0.7630
vn 0.0157 0.6424 0.7662
vn -0.0100 0.6412 0.7673
vn -0.0019 0.6480 0.7617
vn -0.0029 0.6546 0.7560
vn 0.0004 0.6290 0.7774
vn -0.0031 0.6479 0.7617
vn 0.0012 0.6399 0.7684
vn -0.0030 0.6443 0.7648
vn -0.0018 0.6378 0.7702
vn -0.0086 0.6447 0.7644
vn 0.0283 0.6581 0.7524
vn -0.0392 0.6307 0.7750
vn 0.0311 0.6411 0.7668
vn -0.0050 0.6755 0.7374
vn -0.0629 0.7864 0.6145
vn 0.2691 0.7400 -0.6164
vn 0.2690 0.7402 -0.6162
vn 0.3993 0.7040 -0.5874
vn 0.4379 0.6901 -0.5762
vn 0.5158 0.6576 -0.5491
vn 0.5750 0.6276 -0.5248
vn 0.5961 0.6160 -0.5150
vn 0.6747 0.5661 -0.4736
vn 0.7046 0.5442 -0.4554
vn 0.7848 0.4751 -0.3979
vn 0.8105 0.4492 -0.3761
vn 0.8618 0.3887 -0.3259
vn 0.8881 0.3521 -0.2955
vn 0.9346 0.2728 -0.2284
vn 0.9494 0.2407 -0.2019
vn 0.9813 0.1477 -0.1237
vn 0.9892 0.1123 -0.0942
vn 0.9993 0.0277 -0.0235
vn 0.9998 -0.0137 0.0117
vn 0.9939 -0.0845 0.0707
vn 0.9824 -0.1426 0.1204
vn 0.9644 -0.2026 0.1701
vn 0.9442 -0.2520 0.2121
vn 0.9126 -0.3131 0.2629
vn 0.8903 -0.3486 0.2929
vn 0.8496 -0.4038 0.3394
vn 0.8310 -0.4255 0.3584
vn 0.7860 -0.4734 0.3976
vn 0.7734 -0.4847 0.4086
vn 0.7109 -0.5383 0.4527
vn 0.7044 -0.5433 0.4568
vn 0.6193 -0.6005 0.5058
vn 0.6197 -0.6007 0.5052
vn 0.5277 -0.6495 0.5473
vn 0.5212 -0.6527 0.5498
vn 0.4588 -0.6793 0.5728
vn 0.4203 -0.6932 0.5855
vn 0.3506 -0.7156 0.6042
vn 0.2595 -0.7371 0.6240
vn 0.2060 -0.7468 0.6324
vn 0.1539 -0.7528 0.6400
vn 0.0714 -0.7592 0.6469
vn 0.0519 -0.7585 0.6496
vn -0.1382 -0.7430 0.6548
vn -0.1389 -0.7336 0.6652
vn -0.0689 -0.7550 0.6521
vn -0.0678 -0.7557 0.6514
vn -0.2928 -0.6974 0.6541
vn -0.2967 -0.6941 0.6559
vn -0.4436 -0.6344 0.6330
vn -0.4446 -0.6261 0.6405
vn -0.5800 -0.5510 0.6000
vn -0.5766 -0.5592 0.5957
vn -0.6896 -0.4702 0.5509
vn -0.6926 -0.4618 0.5541
vn -0.7764 -0.3856 0.4985
vn -0.7792 -0.3726 0.5041
vn -0.8382 -0.3095 0.4491
vn -0.8428 -0.2969 0.4489
vn -0.8842 -0.2384 0.4017
vn -0.8858 -0.2369 0.3990
vn -0.9266 -0.1525 0.3438
vn -0.9246 -0.1600 0.3457
vn -0.9545 -0.0794 0.2875
vn -0.9554 -0.0747 0.2857
vn -0.9755 0.0062 0.2201
vn -0.9758 0.0068 0.2185
vn -0.9838 0.0896 0.1551
vn -0.9850 0.0796 0.1532
vn -0.9821 0.1656 0.0895
vn -0.9836 0.1564 0.0895
vn -0.9685 0.2484 0.0172
vn -0.9701 0.2421 0.0181
vn -0.9350 0.3480 -0.0687
vn -0.9374 0.3411 -0.0710
vn -0.8755 0.4509 -0.1738
vn -0.8737 0.4547 -0.1730
vn -0.7874 0.5486 -0.2810
vn -0.7806 0.5613 -0.2748
vn -0.6759 0.6296 -0.3831
vn -0.6680 0.6407 -0.3785
vn -0.5490 0.6938 -0.4661
vn -0.5462 0.7005 -0.4593
vn -0.4033 0.7530 -0.5200
vn -0.4073 0.7476 -0.5245
vn -0.2735 0.7714 -0.5746
vn -0.2725 0.7698 -0.5772
vn -0.1397 0.7769 -0.6139
vn -0.1395 0.7788 -0.6116
vn -0.0704 0.7733 -0.6301
vn -0.0636 0.7738 -0.6302
vn 0.0587 0.7708 -0.6343
vn 0.0880 0.7698 -0.6322
vn 0.1181 0.7639 -0.6344
vn 0.1501 0.7608 -0.6314
vn -0.0001 0.0000 -1.0000
vn 0.0005 0.0000 -1.0000
vn -0.0004 0.0000 -1.0000
vn -0.0005 0.0000 -1.0000
vn 0.0020 0.0000 -1.0000
vn 0.0001 0.0000 -1.0000
vn 0.0065 0.0000 -1.0000
vn -0.0032 0.0000 -1.0000
vn 0.0003 0.0000 -1.0000
vn 0.0002 0.0000 -1.0000
vn 0.0012 0.0000 -1.0000
vn 0.0062 0.0000 -1.0000
vn 0.0232 0.0000 -0.9997
vn -0.0073 0.0000 -1.0000
vn -0.0321 0.0000 -0.9995
vn 0.0643 0.0000 -0.9979
vn 0.0000 -0.0011 -1.0000
vn -0.0000 0.0015 -1.0000
vn 0.0000 0.0000 1.0000
vn -0.0002 0.0000 1.0000
vn 0.0003 0.0000 1.0000
vn -0.0007 0.0000 1.0000
vn 0.0015 0.0000 1.0000
vn -0.0029 0.0000 1.0000
vn 0.0021 0.0000 1.0000
vn 0.0015 0.0003 1.0000
vn -0.0035 0.0000 1.0000
vn 0.0016 0.0000 1.0000
vn -0.0009 0.0000 1.0000
vn 0.0003 0.0001 1.0000
vn -0.0003 0.0000 1.0000
vn 0.0001 0.0000 1.0000
vn 0.0009 0.0000 1.0000
vn -0.0118 0.0000 0.9999
vn -0.0282 0.0000 0.9996
vn 0.0042 0.0000 1.0000
vn 0.0198 0.0000 0.9998
vn 0.0073 0.0000 1.0000
vn 0.0426 0.0000 0.9991
vn 0.0067 0.0000 1.0000
vn 0.0498 0.0000 0.9988
vn -0.0940 0.0000 0.9956
vn -0.0001 0.0070 1.0000
vn -0.1550 0.9878 -0.0113
vn -0.3267 0.9450 -0.0145
vn -0.4754 0.8792 -0.0311
vn -0.4762 0.8791 -0.0215
vn -0.5984 0.8007 -0.0279
vn -0.7101 0.7033 -0.0334
vn -0.7319 0.6805 -0.0360
vn -0.7962 0.6038 -0.0379
vn -0.8602 0.5083 -0.0408
vn -0.8889 0.4561 -0.0435
vn -0.9082 0.4162 -0.0438
vn -0.9506 0.3072 -0.0453
vn -0.9614 0.2713 -0.0464
vn -0.9780 0.2031 -0.0468
vn -0.9949 0.0888 -0.0478
vn -0.9988 -0.0131 -0.0477
vn -0.9987 0.0163 -0.0485
vn -0.9908 -0.1267 -0.0475
vn -0.9451 -0.3234 -0.0461
vn -0.9680 -0.2467 -0.0463
vn -0.9248 -0.3779 -0.0439
vn -0.8400 -0.5410 -0.0402
vn -0.8479 -0.5286 -0.0402
vn -0.7468 -0.6641 -0.0358
vn -0.7300 -0.6825 -0.0359
vn -0.6293 -0.7766 -0.0300
vn -0.5438 -0.8388 -0.0269
vn -0.4925 -0.8700 -0.0230
vn -0.3439 -0.9388 -0.0161
vn -0.2173 -0.9750 0.0463
vn -0.1950 -0.9807 -0.0101
vn -0.0738 -0.9973 -0.0032
vn -0.2708 -0.9625 0.0162
vn 0.0444 -0.9990 0.0067
vn -0.0729 -0.9973 0.0032
vn -0.1940 -0.9810 0.0101
vn -0.3439 -0.9389 0.0162
vn -0.5435 -0.8390 0.0269
vn -0.4943 -0.8690 0.0231
vn -0.6310 -0.7752 0.0302
vn -0.7290 -0.6836 0.0359
vn -0.7468 -0.6641 0.0358
vn -0.8393 -0.5422 0.0402
vn -0.8479 -0.5287 0.0402
vn -0.9248 -0.3779 0.0439
vn -0.9450 -0.3237 0.0461
vn -0.9680 -0.2466 0.0463
vn -0.9908 -0.1266 0.0475
vn -0.9864 -0.1575 0.0479
vn -0.9988 -0.0129 0.0477
vn -0.9987 0.0165 0.0485
vn -0.9949 0.0888 0.0478
vn -0.9612 0.2721 0.0464
vn -0.9780 0.2031 0.0468
vn -0.8886 0.4566 0.0435
vn -0.9504 0.3077 0.0457
vn -0.9099 0.4125 0.0438
vn -0.8629 0.5037 0.0411
vn -0.7320 0.6803 0.0360
vn -0.7967 0.6032 0.0376
vn -0.7102 0.7033 0.0334
vn -0.5985 0.8006 0.0280
vn -0.4768 0.8784 0.0312
vn -0.4760 0.8792 0.0214
vn -0.1541 0.9880 0.0112
vn -0.3256 0.9454 0.0144
vn -0.9864 -0.1574 -0.0480
vn 0.0444 -0.9990 -0.0067
vn -0.0462 0.9989 -0.0057
vn -0.1673 0.9859 0.0000
vn -0.0465 0.9989 -0.0001
vn 0.1492 -0.9888 -0.0098
vn -0.1594 -0.9872 0.0000
vn 0.1488 -0.9888 0.0100
vn -0.7278 0.6858 0.0079
vn -0.8848 0.4659 0.0100
vn -0.9689 0.2459 -0.0283
vn -0.9996 0.0271 0.0115
vn -0.9876 -0.1573 0.0008
vn -0.9431 -0.3324 -0.0093
vn -0.8540 -0.5195 0.0273
vn -0.7243 -0.6894 -0.0077
vn -0.5379 -0.8430 -0.0075
vn 0.9994 0.0000 -0.0332
vn 0.9687 -0.2481 -0.0106
vn 0.9915 -0.1280 -0.0223
vn 0.9997 -0.0005 -0.0225
vn -0.0128 -0.9999 0.0000
vn 0.9918 -0.1281 0.0045
vn 0.9989 0.0002 0.0479
vn 1.0000 -0.0005 0.0044
vn 0.9687 -0.2482 0.0020
vn -0.0355 -0.9994 -0.0032
vn 0.1068 -0.9943 -0.0007
vn -0.0231 -0.9997 -0.0078
vn 0.0159 -0.9997 -0.0186
vn 0.0730 -0.9969 -0.0282
vn 0.1518 -0.9879 0.0305
vn 0.1556 -0.9878 -0.0052
vn 0.1157 -0.9931 -0.0191
vn 0.1701 -0.9853 -0.0158
vn 0.2559 -0.9667 -0.0008
vn 0.3128 -0.9497 -0.0170
vn 0.4132 -0.9106 -0.0010
vn 0.5235 -0.8519 -0.0138
vn 0.5498 -0.8353 -0.0013
vn 0.6561 -0.7547 -0.0008
vn 0.7209 -0.6920 0.0378
vn 0.7568 -0.6536 -0.0009
vn 0.8473 -0.5311 -0.0021
vn 0.8534 -0.5212 -0.0012
vn 0.9269 -0.3754 -0.0026
vn 0.9251 -0.3798 -0.0017
vn 0.2268 0.9739 0.0020
vn 0.1068 -0.9943 0.0007
vn 0.2559 -0.9667 0.0008
vn 0.4132 -0.9106 0.0010
vn 0.5498 -0.8353 0.0013
vn 0.6561 -0.7547 0.0008
vn 0.7568 -0.6536 0.0009
vn 0.8534 -0.5212 0.0012
vn 0.9251 -0.3798 0.0017
vn 0.9868 0.1607 -0.0220
vn 0.9506 0.3103 -0.0103
vn 0.9506 0.3105 0.0017
vn 0.9870 0.1607 0.0041
vn 0.3641 -0.9313 0.0009
vn 0.4216 0.9068 -0.0005
vn 0.3169 0.9485 0.0006
vn 0.3176 0.9482 -0.0015
vn 0.8100 0.5862 0.0128
vn 0.8480 0.5300 -0.0008
vn 0.8885 0.4586 -0.0139
vn 0.9002 0.4356 -0.0008
vn 0.6856 0.7279 0.0020
vn 0.5540 0.8325 -0.0009
vn 0.6847 0.7288 -0.0013
vn 0.7541 0.6568 0.0003
vn 0.7912 0.6116 -0.0018
vn 0.4819 0.8762 -0.0001
vn 0.4216 0.9068 0.0005
vn 0.3176 0.9482 0.0015
vn 0.5540 0.8325 0.0009
vn 0.6847 0.7288 0.0013
vn 0.7912 0.6116 0.0018
vn 0.8480 0.5300 0.0008
vn 0.9002 0.4356 0.0008
vn -0.0896 0.9960 -0.0026
vn -0.0896 0.9960 0.0026
vn 0.1552 0.9879 -0.0002
vn 0.1322 0.9910 0.0189
vn 0.0158 0.9999 -0.0067
vn 0.0022 1.0000 0.0004
vn -0.0717 0.9974 0.0056
vn -0.1589 0.9873 0.0000
vn 0.1552 0.9879 0.0002
vn 0.0022 1.0000 -0.0004
vn 0.2691 0.7401 0.6163
vn 0.3994 0.7041 0.5872
vn 0.2690 0.7402 0.6162
vn 0.4379 0.6901 0.5762
vn 0.5158 0.6576 0.5491
vn 0.5750 0.6277 0.5247
vn 0.5961 0.6159 0.5150
vn 0.6747 0.5661 0.4736
vn 0.7050 0.5440 0.4550
vn 0.7847 0.4753 0.3979
vn 0.8105 0.4490 0.3761
vn 0.8616 0.3892 0.3259
vn 0.8882 0.3521 0.2952
vn 0.9346 0.2727 0.2284
vn 0.9494 0.2403 0.2019
vn 0.9812 0.1479 0.1237
vn 0.9893 0.1118 0.0942
vn 0.9993 0.0279 0.0235
vn 0.9998 -0.0139 -0.0117
vn 0.9939 -0.0845 -0.0707
vn 0.9824 -0.1431 -0.1203
vn 0.9644 -0.2022 -0.1701
vn 0.9441 -0.2523 -0.2120
vn 0.9126 -0.3132 -0.2629
vn 0.8905 -0.3483 -0.2929
vn 0.8495 -0.4039 -0.3394
vn 0.8311 -0.4254 -0.3583
vn 0.7861 -0.4733 -0.3976
vn 0.7731 -0.4852 -0.4085
vn 0.7110 -0.5382 -0.4526
vn 0.7044 -0.5432 -0.4569
vn 0.6192 -0.6006 -0.5058
vn 0.6198 -0.6004 -0.5053
vn 0.5276 -0.6496 -0.5474
vn 0.5213 -0.6527 -0.5498
vn 0.4588 -0.6791 -0.5729
vn 0.4204 -0.6934 -0.5853
vn 0.3506 -0.7156 -0.6042
vn 0.2595 -0.7371 -0.6240
vn 0.2060 -0.7469 -0.6323
vn 0.1539 -0.7528 -0.6400
vn 0.0714 -0.7591 -0.6470
vn 0.0519 -0.7585 -0.6497
vn -0.1381 -0.7430 -0.6549
vn -0.0689 -0.7550 -0.6521
vn -0.1382 -0.7337 -0.6652
vn -0.0678 -0.7557 -0.6514
vn -0.2922 -0.6975 -0.6542
vn -0.2977 -0.6939 -0.6557
vn -0.4436 -0.6345 -0.6330
vn -0.4450 -0.6260 -0.6404
vn -0.5805 -0.5508 -0.5997
vn -0.5725 -0.5658 -0.5934
vn -0.6895 -0.4701 -0.5511
vn -0.6902 -0.4694 -0.5506
vn -0.7760 -0.3858 -0.4990
vn -0.7798 -0.3721 -0.5035
vn -0.8381 -0.3097 -0.4491
vn -0.8430 -0.2965 -0.4489
vn -0.8842 -0.2385 -0.4017
vn -0.8857 -0.2390 -0.3980
vn -0.9266 -0.1524 -0.3437
vn -0.9245 -0.1608 -0.3455
vn -0.9547 -0.0772 -0.2874
vn -0.9555 -0.0724 -0.2860
vn -0.9754 0.0082 -0.2201
vn -0.9758 0.0068 -0.2185
vn -0.9838 0.0897 -0.1551
vn -0.9850 0.0796 -0.1532
vn -0.9821 0.1656 -0.0894
vn -0.9836 0.1565 -0.0895
vn -0.9685 0.2483 -0.0174
vn -0.9701 0.2421 -0.0182
vn -0.9350 0.3480 0.0689
vn -0.9375 0.3408 0.0706
vn -0.8755 0.4508 0.1739
vn -0.8738 0.4545 0.1728
vn -0.7874 0.5487 0.2810
vn -0.7807 0.5613 0.2747
vn -0.6714 0.6359 0.3806
vn -0.6698 0.6379 0.3800
vn -0.5452 0.6976 0.4648
vn -0.5487 0.6960 0.4632
vn -0.4056 0.7500 0.5224
vn -0.4110 0.7447 0.5259
vn -0.2727 0.7717 0.5745
vn -0.2733 0.7694 0.5774
vn -0.1389 0.7770 0.6140
vn -0.1380 0.7788 0.6120
vn -0.0704 0.7733 0.6301
vn -0.0636 0.7739 0.6301
vn 0.0587 0.7708 0.6343
vn 0.0880 0.7698 0.6322
vn 0.1181 0.7639 0.6344
vn 0.1501 0.7609 0.6313
vn -1.0000 0.0003 0.0004
vn -1.0000 0.0001 0.0000
vn -1.0000 -0.0001 0.0000
vn -1.0000 -0.0004 0.0009
vn 0.1234 -0.9564 0.2646
vn 0.1845 -0.9598 -0.2116
vn 0.1474 -0.9824 0.1145
vn 0.1530 -0.9876 -0.0364
vn 0.1393 -0.8738 -0.4658
vn 0.1516 -0.9706 -0.1872
vn 0.1499 -0.9310 -0.3329
vn 0.1196 -0.7312 -0.6716
vn 0.1219 -0.8726 -0.4730
vn 0.0997 -0.5668 -0.8178
vn 0.1147 -0.7905 -0.6016
vn 0.1097 -0.6900 -0.7154
vn 0.0817 -0.3981 -0.9137
vn 0.0813 -0.5741 -0.8147
vn -0.0004 -0.1577 -0.9875
vn 0.0750 -0.4428 -0.8935
vn 0.0636 -0.3017 -0.9513
vn 0.0001 -0.9819 -0.1893
vn 0.0001 -0.9992 0.0397
vn -0.0001 -0.9979 -0.0649
vn 0.0004 -0.1668 -0.9860
vn 0.0007 0.0000 -1.0000
vn 0.0001 -0.2280 -0.9737
vn -0.0001 -0.3284 -0.9445
vn -0.0000 -0.4812 -0.8766
vn 0.0001 -0.4441 -0.8960
vn -0.0001 -0.7423 -0.6700
vn 0.0000 -0.6204 -0.7843
vn 0.0001 -0.6367 -0.7711
vn -0.0001 -0.8436 -0.5370
vn 0.0001 -0.7958 -0.6056
vn 0.0000 -0.9212 -0.3890
vn 0.0001 -0.9129 -0.4082
vn 0.0003 -0.9639 0.2663
vn 0.0001 -0.9947 0.1023
vn -0.0000 -0.9731 -0.2302
vn 0.1717 -0.9846 0.0332
vn 0.0357 -0.1723 -0.9844
vn -0.0348 0.0631 -0.9974
vn 0.0509 -0.9502 -0.3075
vn 0.0796 -0.9861 0.1456
vn 0.0553 -0.9985 0.0029
vn -0.0025 -0.9998 -0.0183
vn -0.1987 -0.9800 0.0093
vn 0.0224 -0.9241 0.3814
vn -0.0467 -0.9971 0.0594
vn -0.3096 -0.9424 0.1270
vn -0.1855 -0.9824 0.0221
vn -0.3439 -0.9293 0.1346
vn -0.2835 -0.9539 -0.0984
vn -0.2513 -0.9670 0.0412
vn -0.0893 -0.9958 0.0195
vn -0.2915 -0.9502 -0.1098
vn -0.2022 -0.9551 0.2164
vn -0.0403 -0.9626 0.2681
vn -0.0137 -0.9992 0.0373
vn 0.0000 -0.9992 0.0396
vn -0.0570 -0.0051 -0.9984
vn 0.0000 -0.2280 -0.9737
vn -0.0032 -0.2065 -0.9784
vn -0.1096 -0.6271 -0.7712
vn -0.0763 0.1318 -0.9883
vn -0.1299 0.0736 -0.9888
vn 0.0006 0.0328 -0.9995
vn -0.0004 0.1433 -0.9897
vn 0.0000 0.0136 -0.9999
vn 0.0112 0.1410 -0.9899
vn 0.0401 -0.0002 -0.9992
vn 0.0464 -0.1526 -0.9872
vn 0.0000 -0.9819 -0.1893
vn -0.0121 -0.9842 -0.1769
vn -0.1063 -0.9755 -0.1927
vn -0.2550 -0.8963 -0.3629
vn 0.0000 -0.9129 -0.4082
vn 0.0000 -0.7958 -0.6056
vn -0.0110 -0.9175 -0.3977
vn -0.5738 -0.7994 0.1782
vn -0.2218 -0.7836 -0.5803
vn -0.0373 -0.8173 -0.5750
vn -0.1640 -0.6209 -0.7666
vn 0.0000 -0.6367 -0.7711
vn 0.0000 -0.4441 -0.8960
vn -0.0353 -0.6636 -0.7473
vn -0.1369 -0.4534 -0.8808
vn -0.0289 -0.4702 -0.8821
vn -0.1138 -0.2770 -0.9541
vn -0.2184 -0.9091 -0.3547
vn -0.0623 -0.9360 -0.3464
vn 0.0292 -0.9315 -0.3625
vn -0.2408 -0.7854 -0.5702
vn 0.1789 -0.6601 -0.7296
vn -0.0216 -0.8105 -0.5853
vn 0.0528 -0.9211 -0.3857
vn 0.0038 -0.7934 -0.6087
vn -0.1758 -0.6080 -0.7742
vn -0.0491 -0.6597 -0.7499
vn -0.1454 -0.4391 -0.8866
vn -0.0400 -0.4865 -0.8728
vn 0.0034 -0.6192 -0.7852
vn 0.0038 -0.4476 -0.8942
vn 0.0650 -0.8314 -0.5518
vn 0.0550 -0.6654 -0.7444
vn 0.0466 -0.4932 -0.8687
vn -0.1221 -0.2825 -0.9515
vn -0.0323 -0.3229 -0.9459
vn -0.1040 -0.1334 -0.9856
vn -0.0262 -0.1695 -0.9852
vn 0.0042 -0.2878 -0.9577
vn 0.0047 -0.1384 -0.9904
vn 0.0400 -0.3284 -0.9437
vn 0.1047 -0.9284 0.3566
vn 0.0964 -0.8902 0.4453
vn -0.0423 -0.5722 0.8190
vn 0.0001 -0.3195 0.9476
vn 0.0000 -0.4688 0.8833
vn -0.0000 -0.9080 0.4190
vn 0.0000 -0.7265 0.6872
vn -0.0000 -0.8282 0.5605
vn -0.0000 -0.8281 0.5605
vn 0.0000 -0.6056 0.7958
vn 0.0013 0.0000 1.0000
vn 0.0005 -0.1616 0.9869
vn -0.0000 -0.3196 0.9476
vn 0.0533 -0.2599 0.9642
vn 0.0340 0.0002 0.9994
vn 0.0182 -0.1423 0.9897
vn 0.0098 -0.3707 0.9287
vn 0.0087 -0.1812 0.9834
vn -0.0502 -0.3834 0.9222
vn -0.0384 -0.1448 0.9887
vn -0.1596 -0.3607 0.9189
vn -0.0013 -0.0744 0.9972
vn -0.1649 -0.3578 0.9191
vn -0.0669 -0.0011 0.9978
vn -0.0707 -0.8812 0.4673
vn -0.0330 -0.3273 0.9443
vn 0.0000 -0.7264 0.6872
vn -0.0009 -0.9116 0.4112
vn -0.2689 -0.8761 0.4002
vn -0.3189 -0.9439 0.0861
vn -0.0026 -0.9881 0.1537
vn -0.1063 -0.9594 0.2612
vn -0.0325 -0.9603 0.2770
vn 0.0828 -0.9934 0.0790
vn 0.0282 -0.1577 0.9871
vn 0.0493 -0.3109 0.9492
vn 0.0594 -0.4561 0.8879
vn 0.0972 -0.5941 0.7985
vn 0.0680 -0.5900 0.8046
vn 0.0806 -0.7085 0.7011
vn 0.0690 -0.7559 0.6510
vn 0.0906 -0.8093 0.5804
vn 0.0790 -0.8736 0.4801
vn -0.0429 -0.5723 0.8189
vn -0.0818 -0.5370 0.8396
vn -0.2010 -0.6047 0.7707
vn -0.0456 -0.6937 0.7188
vn -0.1952 -0.7500 0.6319
vn -0.0181 -0.8175 0.5757
vn -0.2419 -0.8311 0.5008
vn -0.1461 -0.9190 0.3661
vn -0.1996 -0.6229 0.7564
vn -0.0688 -0.5620 0.8243
vn -0.0273 -0.6029 0.7973
vn -0.1849 -0.7793 0.5987
vn -0.0309 -0.7307 0.6820
vn -0.2350 -0.8637 0.4458
vn -0.0054 -0.8726 0.4885
vn -0.0855 -0.8934 0.4411
vn 0.0149 -0.7638 0.6453
vn 0.0163 -0.8835 0.4682
vn 0.1061 0.9584 -0.2651
vn 0.1637 0.9614 0.2211
vn 0.1301 0.9848 -0.1148
vn 0.1359 0.9900 0.0365
vn 0.1241 0.8752 0.4675
vn 0.1349 0.9729 0.1876
vn 0.1340 0.9331 0.3337
vn 0.1068 0.7324 0.6724
vn 0.1069 0.8741 0.4739
vn 0.0897 0.5679 0.8182
vn 0.1007 0.7917 0.6026
vn 0.0978 0.6908 0.7164
vn 0.0747 0.3987 0.9140
vn 0.0713 0.5745 0.8154
vn 0.0168 0.1762 0.9842
vn 0.0667 0.4430 0.8940
vn 0.0776 0.3011 0.9504
vn 0.0001 0.9819 0.1893
vn 0.0001 0.9992 -0.0397
vn -0.0001 0.9979 0.0649
vn 0.0004 0.1669 0.9860
vn 0.0001 0.2280 0.9737
vn -0.0001 0.3284 0.9445
vn -0.0000 0.4812 0.8766
vn 0.0001 0.4441 0.8960
vn -0.0001 0.7423 0.6700
vn 0.0000 0.6204 0.7843
vn 0.0001 0.6367 0.7711
vn -0.0001 0.8436 0.5370
vn 0.0001 0.7958 0.6056
vn 0.0000 0.9212 0.3890
vn 0.0001 0.9129 0.4082
vn 0.0003 0.9638 -0.2665
vn 0.0001 0.9947 -0.1023
vn -0.0000 0.9731 0.2302
vn 0.0633 0.1527 0.9862
vn -0.0025 0.9981 0.0620
vn 0.0312 0.9336 0.3570
vn -0.0079 0.9998 -0.0196
vn 0.0343 0.1718 0.9845
vn -0.0728 -0.1019 0.9921
vn 0.0053 0.9998 0.0168
vn -0.0020 1.0000 0.0004
vn 0.0054 0.9999 -0.0123
vn -0.0495 0.9987 -0.0116
vn -0.1577 0.9349 -0.3181
vn -0.0001 0.9836 -0.1804
vn -0.1796 0.9516 0.2495
vn -0.1321 0.9824 0.1321
vn -0.0887 0.9607 -0.2629
vn -0.0297 0.9990 -0.0341
vn 0.0000 0.9992 -0.0396
vn 0.0001 0.2221 0.9750
vn -0.1580 -0.8647 0.4768
vn -0.1319 -0.0442 0.9903
vn -0.0892 0.1232 0.9884
vn -0.0031 -0.0308 0.9995
vn -0.0001 -0.0071 1.0000
vn 0.0000 0.9819 0.1893
vn -0.0272 0.9864 0.1618
vn -0.1172 0.9166 0.3823
vn 0.0000 0.9129 0.4082
vn 0.0000 0.7958 0.6056
vn -0.0246 0.9227 0.3848
vn -0.1068 0.7977 0.5935
vn -0.0218 0.8090 0.5874
vn -0.0958 0.6449 0.7582
vn 0.0000 0.6367 0.7711
vn -0.0078 0.4510 0.8925
vn -0.2880 0.8052 0.5184
vn -0.0859 0.4716 0.8776
vn -0.0770 0.2841 0.9557
vn -0.0790 0.9227 0.3772
vn 0.0126 0.9384 0.3454
vn -0.1177 0.7948 0.5953
vn -0.0336 0.8167 0.5761
vn 0.0515 0.9217 0.3845
vn 0.0028 0.7941 0.6078
vn -0.1062 0.6253 0.7731
vn -0.0296 0.6459 0.7628
vn -0.0957 0.4540 0.8859
vn -0.0252 0.4746 0.8799
vn 0.0026 0.6199 0.7847
vn 0.0032 0.4481 0.8940
vn 0.0583 0.8306 0.5539
vn 0.0497 0.6645 0.7456
vn 0.0427 0.4924 0.8693
vn -0.0891 0.2909 0.9526
vn -0.0219 0.3141 0.9491
vn -0.0874 0.1360 0.9868
vn -0.0200 0.1645 0.9862
vn 0.0039 0.2882 0.9576
vn 0.0046 0.1386 0.9903
vn 0.0374 0.3277 0.9440
vn 0.0111 0.8268 -0.5624
vn 0.0778 0.9558 -0.2834
vn 0.0739 0.8300 -0.5528
vn 0.0835 0.8831 -0.4617
vn 0.0925 0.9262 -0.3654
vn 0.0006 0.8321 -0.5546
vn -0.0019 0.9591 -0.2831
vn -0.0000 0.9094 -0.4158
vn 0.0004 0.8321 -0.5546
vn -0.0773 0.8293 -0.5534
vn -0.1441 0.9620 -0.2319
vn -0.0585 0.8279 -0.5579
vn -0.0156 0.8355 -0.5493
vn -0.1481 0.9155 -0.3741
vn -0.0009 0.9603 -0.2788
vn -0.0001 0.9091 -0.4166
vn 0.0674 0.2977 -0.9523
vn 0.0369 0.1633 -0.9859
vn 0.0489 0.3216 -0.9456
vn 0.0475 0.4690 -0.8819
vn 0.0545 0.4714 -0.8802
vn 0.0641 0.6083 -0.7911
vn 0.0895 0.6458 -0.7582
vn 0.0701 0.7288 -0.6811
vn 0.0001 0.6722 -0.7404
vn 0.0001 0.7306 -0.6828
vn -0.0001 0.6093 -0.7930
vn 0.0001 0.4719 -0.8817
vn 0.0000 0.4719 -0.8817
vn 0.0001 0.1629 -0.9866
vn 0.0001 0.2432 -0.9700
vn -0.0001 0.3218 -0.9468
vn -0.1311 0.6020 -0.7877
vn -0.1056 0.6422 -0.7592
vn 0.0041 0.7028 -0.7113
vn 0.0058 0.6977 -0.7164
vn -0.0000 0.2923 -0.9563
vn 0.0009 0.2737 -0.9618
vn -0.0874 0.7026 -0.7062
vn -0.0103 0.2435 -0.9698
vn 0.0000 0.6721 -0.7404
vn -0.0027 0.6850 -0.7285
vn -0.0016 0.4701 -0.8826
vn -0.0835 0.4952 -0.8648
vn -0.0404 0.5035 -0.8631
vn -0.0141 0.4553 -0.8902
vn -0.0468 0.4921 -0.8693
vn 0.0120 0.4801 -0.8771
vn 1.0000 -0.0001 0.0000
vn 1.0000 0.0001 0.0000
vn 1.0000 0.0002 0.0000
usemtl None
s 1
f 1//1 2//1 3//1
f 4//1 3//1 5//2
f 6//1 5//2 7//2
f 8//1 7//2 9//1
f 10//1 9//1 11//1
f 12//1 11//1 13//1
f 14//3 13//1 15//4
f 16//5 15//4 17//6
f 18//7 17//6 19//8
f 20//9 17//6 18//7
f 21//10 17//6 20//9
f 22//11 17//6 21//10
f 16//5 17//6 22//11
f 23//12 15//4 16//5
f 14//3 15//4 23//12
f 12//1 13//1 14//3
f 24//1 11//1 12//1
f 25//1 26//1 2//1
f 10//1 11//1 24//1
f 8//1 9//1 10//1
f 6//1 7//2 8//1
f 4//1 5//2 6//1
f 1//1 3//1 4//1
f 27//1 28//13 26//1
f 25//1 2//1 1//1
f 29//1 26//1 25//1
f 27//1 26//1 29//1
f 30//14 28//13 27//1
f 31//15 28//13 30//14
f 32//16 28//13 31//15
f 33//17 28//13 32//16
f 34//18 28//13 33//17
f 35//19 28//13 34//18
f 36//20 28//13 35//19
f 37//21 28//13 36//20
f 38//22 28//13 37//21
f 39//23 28//13 38//22
f 40//24 28//13 39//23
f 41//25 28//13 40//24
f 42//26 28//13 41//25
f 43//27 28//13 42//26
f 44//28 28//13 43//27
f 45//29 28//13 44//28
f 46//30 28//13 45//29
f 47//31 28//13 46//30
f 48//32 28//13 47//31
f 49//33 28//13 48//32
f 50//34 28//13 49//33
f 51//35 52//35 53//35
f 51//35 53//35 54//35
f 55//36 52//36 56//36
f 51//36 56//36 52//36
f 57//37 58//37 55//37
f 57//37 55//37 56//37
f 53//38 58//38 54//38
f 57//38 54//38 58//38
f 59//39 60//39 61//39
f 62//39 61//39 60//39
f 63//40 64//40 65//40
f 66//40 67//40 64//40
f 68//40 69//41 67//40
f 70//40 71//40 69//41
f 72//40 73//40 71//40
f 74//40 75//40 73//40
f 76//42 77//43 75//40
f 78//44 79//45 77//43
f 80//46 81//47 79//45
f 82//48 80//46 79//45
f 83//49 82//48 79//45
f 84//50 83//49 79//45
f 78//44 84//50 79//45
f 85//51 78//44 77//43
f 76//42 85//51 77//43
f 74//40 76//42 75//40
f 86//40 74//40 73//40
f 87//40 65//40 88//40
f 72//40 86//40 73//40
f 70//40 72//40 71//40
f 68//40 70//40 69//41
f 66//40 68//40 67//40
f 63//40 66//40 64//40
f 89//40 88//40 90//52
f 87//40 63//40 65//40
f 91//40 87//40 88//40
f 89//40 91//40 88//40
f 92//53 89//40 90//52
f 93//54 92//53 90//52
f 94//55 93//54 90//52
f 95//56 94//55 90//52
f 96//57 95//56 90//52
f 97//58 96//57 90//52
f 98//59 97//58 90//52
f 99//60 98//59 90//52
f 100//61 99//60 90//52
f 101//62 100//61 90//52
f 102//63 101//62 90//52
f 103//64 102//63 90//52
f 104//65 103//64 90//52
f 105//66 104//65 90//52
f 106//67 105//66 90//52
f 107//68 106//67 90//52
f 108//69 107//68 90//52
f 109//70 108//69 90//52
f 110//71 109//70 90//52
f 111//72 110//71 90//52
f 112//73 111//72 90//52
f 113//74 114//75 115//76
f 116//77 115//76 117//78
f 118//79 117//78 119//80
f 120//81 119//80 121//82
f 122//83 121//82 123//84
f 124//85 123//84 125//86
f 126//87 125//86 127//88
f 128//89 127//88 129//90
f 130//91 129//90 131//92
f 132//93 131//92 133//94
f 134//95 133//94 135//96
f 136//97 135//96 137//98
f 138//99 137//98 139//100
f 140//101 139//100 141//102
f 142//103 141//102 143//104
f 144//105 143//104 145//106
f 146//107 145//106 147//108
f 148//109 147//108 149//110
f 150//111 149//110 151//112
f 152//113 151//112 153//114
f 154//115 153//114 155//116
f 156//117 157//118 158//119
f 159//120 155//116 158//119
f 159//120 158//119 157//118
f 154//115 155//116 159//120
f 152//113 153//114 154//115
f 150//111 151//112 152//113
f 148//109 149//110 150//111
f 146//107 147//108 148//109
f 144//105 145//106 146//107
f 142//103 143//104 144//105
f 140//101 141//102 142//103
f 138//99 139//100 140//101
f 136//97 137//98 138//99
f 134//95 135//96 136//97
f 132//93 133//94 134//95
f 130//91 131//92 132//93
f 128//89 129//90 130//91
f 126//87 127//88 128//89
f 124//85 125//86 126//87
f 122//83 123//84 124//85
f 120//81 121//82 122//83
f 118//79 119//80 120//81
f 116//77 117//78 118//79
f 113//74 115//76 116//77
f 160//121 156//117 161//122
f 162//123 161//122 163//124
f 164//125 163//124 165//126
f 166//127 165//126 167//128
f 168//129 167//128 169//130
f 170//131 169//130 171//132
f 172//133 171//132 173//134
f 174//135 173//134 175//136
f 176//137 175//136 177//138
f 178//139 177//138 179//140
f 180//141 179//140 181//142
f 182//143 181//142 183//144
f 184//145 183//144 185//146
f 186//147 185//146 187//148
f 188//149 187//148 189//150
f 190//151 189//150 191//152
f 192//153 191//152 193//154
f 194//155 193//154 195//156
f 196//157 195//156 197//158
f 198//159 197//158 199//160
f 200//161 199//160 201//162
f 198//159 199//160 200//161
f 196//157 197//158 198//159
f 194//155 195//156 196//157
f 192//153 193//154 194//155
f 190//151 191//152 192//153
f 188//149 189//150 190//151
f 186//147 187//148 188//149
f 184//145 185//146 186//147
f 182//143 183//144 184//145
f 180//141 181//142 182//143
f 178//139 179//140 180//141
f 176//137 177//138 178//139
f 174//135 175//136 176//137
f 172//133 173//134 174//135
f 170//131 171//132 172//133
f 168//129 169//130 170//131
f 166//127 167//128 168//129
f 164//125 165//126 166//127
f 162//123 163//124 164//125
f 160//121 161//122 162//123
f 157//118 156//117 160//121
f 202//163 201//162 203//164
f 204//165 203//164 205//166
f 206//167 205//166 207//168
f 113//74 207//168 114//75
f 206//167 207//168 113//74
f 204//165 205//166 206//167
f 202//163 203//164 204//165
f 200//161 201//162 202//163
f 208//39 209//39 210//39
f 208//39 210//39 211//39
f 208//39 211//39 212//39
f 208//39 212//39 213//39
f 208//39 213//39 214//39
f 208//39 214//39 215//169
f 216//170 215//169 217//171
f 218//39 217//171 219//172
f 220//173 219//172 221//174
f 222//175 221//174 223//39
f 224//176 221//174 222//175
f 220//173 221//174 224//176
f 225//177 219//172 220//173
f 218//39 219//172 225//177
f 226//39 217//171 218//39
f 227//39 217//171 226//39
f 216//170 217//171 227//39
f 228//178 215//169 216//170
f 229//39 215//169 228//178
f 208//39 215//169 229//39
f 230//174 231//179 232//39
f 208//39 232//39 209//39
f 208//39 230//174 232//39
f 233//39 231//179 230//174
f 234//39 231//179 233//39
f 235//39 231//179 234//39
f 236//39 231//179 235//39
f 237//39 231//179 236//39
f 238//180 231//179 237//39
f 239//181 231//179 238//180
f 240//39 231//179 239//181
f 241//39 231//179 240//39
f 242//39 231//179 241//39
f 243//39 231//179 242//39
f 244//39 231//179 243//39
f 245//182 231//179 244//39
f 246//183 231//179 245//182
f 247//184 231//179 246//183
f 248//39 231//179 247//184
f 249//39 231//179 248//39
f 250//185 231//179 249//39
f 251//186 231//179 250//185
f 252//39 231//179 251//186
f 253//39 231//179 252//39
f 254//187 255//187 256//187
f 254//187 257//187 255//187
f 254//187 258//187 257//187
f 254//187 259//187 258//187
f 254//187 260//187 259//187
f 254//187 261//188 260//187
f 262//189 263//190 261//188
f 264//191 265//192 263//190
f 266//193 267//194 265//192
f 268//187 269//187 267//194
f 270//195 268//187 267//194
f 266//193 270//195 267//194
f 271//196 266//193 265//192
f 264//191 271//196 265//192
f 272//197 264//191 263//190
f 273//198 272//197 263//190
f 262//189 273//198 263//190
f 274//199 262//189 261//188
f 275//187 274//199 261//188
f 254//187 275//187 261//188
f 276//200 277//187 278//201
f 254//187 256//187 277//187
f 254//187 277//187 276//200
f 279//187 276//200 278//201
f 280//187 279//187 278//201
f 281//187 280//187 278//201
f 282//202 281//187 278//201
f 283//203 282//202 278//201
f 284//187 283//203 278//201
f 285//204 284//187 278//201
f 286//205 285//204 278//201
f 287//187 286//205 278//201
f 288//187 287//187 278//201
f 289//187 288//187 278//201
f 290//187 289//187 278//201
f 291//206 290//187 278//201
f 292//207 291//206 278//201
f 293//187 292//207 278//201
f 294//187 293//187 278//201
f 295//208 294//187 278//201
f 296//209 295//208 278//201
f 297//210 296//209 278//201
f 298//187 297//210 278//201
f 299//211 298//187 278//201
f 231//212 253//213 300//214
f 253//213 252//215 300//214
f 252//215 251//216 300//214
f 251//216 250//217 301//218
f 250//217 249//219 301//218
f 249//219 248//220 302//221
f 248//220 247//222 302//221
f 247//222 246//223 303//224
f 246//223 245//225 303//224
f 245//225 244//226 303//224
f 244//226 243//227 304//228
f 304//228 243//227 242//229
f 305//230 241//231 240//232
f 306//233 240//232 239//234
f 306//233 239//234 238//235
f 307//236 238//235 237//237
f 308//238 237//237 236//239
f 308//238 236//239 235//240
f 308//238 235//240 309//241
f 235//240 234//242 309//241
f 234//242 233//243 309//241
f 310//244 276//245 279//246
f 310//244 279//246 280//247
f 310//244 280//247 281//248
f 311//249 281//248 282//250
f 311//249 282//250 283//251
f 312//252 283//251 284//253
f 313//254 284//253 285//255
f 313//254 285//255 286//256
f 314//257 286//256 287//258
f 287//258 288//259 315//260
f 288//259 289//261 316//262
f 289//261 290//263 316//262
f 317//264 290//263 291//265
f 318//266 292//267 293//268
f 318//266 293//268 294//269
f 319//270 294//269 295//271
f 319//270 295//271 296//272
f 319//270 296//272 297//273
f 320//274 297//273 298//275
f 278//276 320//274 299//277
f 320//274 298//275 299//277
f 321//278 242//229 241//231
f 309//241 233//243 230//279
f 307//236 237//237 308//238
f 306//233 238//235 307//236
f 305//230 240//232 306//233
f 321//278 241//231 305//230
f 304//228 242//229 321//278
f 303//224 244//226 304//228
f 302//221 247//222 303//224
f 301//218 249//219 302//221
f 300//214 322//280 231//212
f 300//214 251//216 301//218
f 323//281 324//282 322//280
f 300//214 323//281 322//280
f 317//264 291//265 292//267
f 320//274 278//276 324//282
f 323//281 320//274 324//282
f 319//270 297//273 320//274
f 318//266 294//269 319//270
f 317//264 292//267 318//266
f 316//262 290//263 317//264
f 315//260 288//259 316//262
f 314//257 287//258 315//260
f 313//254 286//256 314//257
f 312//252 284//253 313//254
f 311//249 283//251 312//252
f 310//244 325//283 276//245
f 310//244 281//248 311//249
f 326//284 327//285 325//283
f 310//244 326//284 325//283
f 309//241 230//279 327//285
f 326//284 309//241 327//285
f 320//274 323//281 319//270
f 328//286 319//270 323//281
f 319//270 328//286 318//266
f 329//287 318//266 328//286
f 318//266 329//287 317//264
f 330//288 317//264 329//287
f 317//264 330//288 316//262
f 331//289 316//262 330//288
f 316//262 331//289 315//260
f 332//290 315//260 331//289
f 315//260 332//290 314//257
f 333//291 314//257 332//290
f 314//257 333//291 313//254
f 334//292 313//254 333//291
f 313//254 334//292 312//252
f 335//293 312//252 334//292
f 312//252 335//293 311//249
f 336//294 311//249 335//293
f 311//249 336//294 310//244
f 326//284 310//244 336//294
f 323//281 300//214 328//286
f 301//218 328//286 300//214
f 328//286 301//218 329//287
f 302//221 329//287 301//218
f 329//287 302//221 330//288
f 303//224 330//288 302//221
f 330//288 303//224 331//289
f 304//228 331//289 303//224
f 331//289 304//228 332//290
f 321//278 332//290 304//228
f 332//290 321//278 333//291
f 305//230 333//291 321//278
f 333//291 305//230 334//292
f 306//233 334//292 305//230
f 334//292 306//233 335//293
f 307//236 335//293 306//233
f 335//293 307//236 336//294
f 308//238 336//294 307//236
f 336//294 308//238 326//284
f 309//241 326//284 308//238
f 337//295 220//296 224//297
f 337//295 224//297 222//298
f 338//299 325//283 327//285
f 270//300 339//301 268//302
f 266//303 339//301 270//300
f 338//299 276//245 325//283
f 340//304 276//245 338//299
f 340//304 254//305 276//245
f 341//306 254//305 340//304
f 342//307 254//305 341//306
f 343//308 254//305 342//307
f 344//309 254//305 343//308
f 345//310 254//305 344//309
f 346//311 254//305 345//310
f 347//312 254//305 346//311
f 275//313 254//305 347//312
f 348//314 275//313 347//312
f 274//315 275//313 348//314
f 349//316 274//315 348//314
f 349//316 262//317 274//315
f 273//318 262//317 349//316
f 350//319 273//318 349//316
f 350//319 272//320 273//318
f 351//321 272//320 350//319
f 351//321 264//322 272//320
f 352//323 264//322 351//321
f 352//323 271//324 264//322
f 353//325 337//295 339//301
f 266//303 353//325 339//301
f 266//303 271//324 352//323
f 353//325 266//303 352//323
f 230//279 338//299 327//285
f 340//304 338//299 230//279
f 208//326 340//304 230//279
f 208//326 341//306 340//304
f 208//326 342//307 341//306
f 208//326 343//308 342//307
f 208//326 344//309 343//308
f 208//326 345//310 344//309
f 208//326 346//311 345//310
f 208//326 347//312 346//311
f 229//327 347//312 208//326
f 229//327 348//314 347//312
f 228//328 348//314 229//327
f 349//316 348//314 228//328
f 216//329 349//316 228//328
f 227//330 349//316 216//329
f 350//319 349//316 227//330
f 226//331 350//319 227//330
f 351//321 350//319 226//331
f 218//332 351//321 226//331
f 352//323 351//321 218//332
f 225//333 352//323 218//332
f 220//296 352//323 225//333
f 220//296 353//325 352//323
f 353//325 220//296 337//295
f 337//295 222//298 223//334
f 337//295 223//334 221//335
f 339//301 267//336 269//337
f 354//338 339//301 337//295
f 339//301 269//337 268//302
f 258//339 355//340 257//341
f 356//342 263//343 357//344
f 357//344 265//345 354//338
f 358//346 259//347 260//348
f 359//349 260//348 261//350
f 356//342 261//350 263//343
f 357//344 263//343 265//345
f 267//336 354//338 265//345
f 354//338 267//336 339//301
f 360//351 258//339 259//347
f 359//349 261//350 356//342
f 358//346 260//348 359//349
f 360//351 259//347 358//346
f 360//351 355//340 258//339
f 221//335 354//338 337//295
f 212//352 355//340 360//351
f 355//340 212//352 211//353
f 212//352 360//351 213//354
f 214//355 359//349 215//356
f 360//351 358//346 213//354
f 215//356 359//349 356//342
f 358//346 214//355 213//354
f 217//357 215//356 356//342
f 359//349 214//355 358//346
f 357//344 217//357 356//342
f 219//358 217//357 357//344
f 354//338 219//358 357//344
f 354//338 221//335 219//358
f 322//280 232//359 231//212
f 277//360 324//282 278//276
f 255//361 257//341 355//340
f 361//362 255//361 355//340
f 362//363 255//361 361//362
f 362//363 256//364 255//361
f 363//365 256//364 362//363
f 363//365 277//360 256//364
f 364//366 322//280 324//282
f 277//360 364//366 324//282
f 364//366 277//360 363//365
f 210//367 355//340 211//353
f 210//367 361//362 355//340
f 362//363 361//362 210//367
f 209//368 362//363 210//367
f 363//365 362//363 209//368
f 232//359 363//365 209//368
f 232//359 364//366 363//365
f 364//366 232//359 322//280
f 365//369 366//370 367//371
f 368//372 369//373 366//370
f 370//374 371//375 369//373
f 372//376 373//377 371//375
f 374//378 375//379 373//377
f 376//380 377//381 375//379
f 378//382 379//383 377//381
f 380//384 381//385 379//383
f 382//386 383//387 381//385
f 384//388 385//389 383//387
f 386//390 387//391 385//389
f 388//392 389//393 387//391
f 390//394 391//395 389//393
f 392//396 393//397 391//395
f 394//398 395//399 393//397
f 396//400 397//401 395//399
f 398//402 399//403 397//401
f 400//404 401//405 399//403
f 402//406 403//407 401//405
f 404//408 405//409 403//407
f 406//410 407//411 405//409
f 408//412 409//413 410//414
f 411//415 409//413 407//411
f 411//415 410//414 409//413
f 406//410 411//415 407//411
f 404//408 406//410 405//409
f 402//406 404//408 403//407
f 400//404 402//406 401//405
f 398//402 400//404 399//403
f 396//400 398//402 397//401
f 394//398 396//400 395//399
f 392//396 394//398 393//397
f 390//394 392//396 391//395
f 388//392 390//394 389//393
f 386//390 388//392 387//391
f 384//388 386//390 385//389
f 382//386 384//388 383//387
f 380//384 382//386 381//385
f 378//382 380//384 379//383
f 376//380 378//382 377//381
f 374//378 376//380 375//379
f 372//376 374//378 373//377
f 370//374 372//376 371//375
f 368//372 370//374 369//373
f 365//369 368//372 366//370
f 412//416 413//417 408//412
f 414//418 415//419 413//417
f 416//420 417//421 415//419
f 418//422 419//423 417//421
f 420//424 421//425 419//423
f 422//426 423//427 421//425
f 424//428 425//429 423//427
f 426//430 427//431 425//429
f 428//432 429//433 427//431
f 430//434 431//435 429//433
f 432//436 433//437 431//435
f 434//438 435//439 433//437
f 436//440 437//441 435//439
f 438//442 439//443 437//441
f 440//444 441//445 439//443
f 442//446 443//447 441//445
f 444//448 445//449 443//447
f 446//450 447//451 445//449
f 448//452 449//453 447//451
f 450//454 451//455 449//453
f 452//456 453//457 451//455
f 450//454 452//456 451//455
f 448//452 450//454 449//453
f 446//450 448//452 447//451
f 444//448 446//450 445//449
f 442//446 444//448 443//447
f 440//444 442//446 441//445
f 438//442 440//444 439//443
f 436//440 438//442 437//441
f 434//438 436//440 435//439
f 432//436 434//438 433//437
f 430//434 432//436 431//435
f 428//432 430//434 429//433
f 426//430 428//432 427//431
f 424//428 426//430 425//429
f 422//426 424//428 423//427
f 420//424 422//426 421//425
f 418//422 420//424 419//423
f 416//420 418//422 417//421
f 414//418 416//420 415//419
f 412//416 414//418 413//417
f 410//414 412//416 408//412
f 454//458 455//459 453//457
f 456//460 457//461 455//459
f 458//462 459//463 457//461
f 365//369 367//371 459//463
f 458//462 365//369 459//463
f 456//460 458//462 457//461
f 454//458 456//460 455//459
f 452//456 454//458 453//457
f 460//464 461//37 462//465
f 463//37 461//37 460//464
f 464//37 461//37 463//37
f 465//466 461//37 464//37
f 466//37 461//37 465//466
f 467//37 461//37 466//37
f 468//466 461//37 467//37
f 469//37 461//37 468//466
f 470//37 461//37 469//37
f 471//37 461//37 470//37
f 472//465 461//37 471//37
f 473//37 461//37 472//465
f 474//37 461//37 473//37
f 475//37 461//37 474//37
f 476//37 461//37 475//37
f 477//37 461//37 476//37
f 478//37 461//37 477//37
f 479//37 461//37 478//37
f 480//37 461//37 479//37
f 481//37 461//37 480//37
f 482//37 461//37 481//37
f 483//37 461//37 482//37
f 484//37 461//37 483//37
f 485//37 461//37 484//37
f 486//37 461//37 485//37
f 487//37 461//37 486//37
f 488//37 461//37 487//37
f 489//37 461//37 488//37
f 490//37 461//37 489//37
f 491//37 461//37 490//37
f 492//37 461//37 491//37
f 493//37 461//37 492//37
f 494//37 461//37 493//37
f 495//37 461//37 494//37
f 496//37 461//37 495//37
f 497//467 461//37 496//37
f 498//468 499//469 500//470
f 500//470 499//469 501//471
f 501//471 502//472 503//473
f 503//473 502//472 504//474
f 504//474 505//475 506//476
f 506//476 507//477 508//478
f 508//478 507//477 509//479
f 509//479 510//480 511//481
f 511//481 510//480 512//482
f 513//483 511//481 512//482
f 514//484 513//483 512//482
f 515//485 516//486 469//487
f 462//488 461//489 517//490
f 460//491 462//488 517//490
f 463//492 460//491 518//493
f 465//494 464//495 519//496
f 466//497 465//494 520//498
f 467//499 466//497 521//500
f 471//501 470//502 516//486
f 467//499 521//500 468//503
f 507//477 510//480 509//479
f 505//475 507//477 506//476
f 502//472 505//475 504//474
f 499//469 498//468 522//504
f 499//469 502//472 501//471
f 523//505 524//506 512//482
f 499//469 522//504 525//507
f 526//508 522//504 527//509
f 526//508 525//507 522//504
f 528//510 527//509 529//511
f 526//508 527//509 528//510
f 530//512 528//510 529//511
f 531//513 530//512 529//511
f 532//514 533//515 534//516
f 531//513 529//511 533//515
f 531//513 533//515 532//514
f 535//517 536//518 537//519
f 538//520 534//516 536//518
f 532//514 534//516 538//520
f 535//517 538//520 536//518
f 537//519 539//521 540//522
f 537//519 536//518 539//521
f 464//495 463//492 519//496
f 516//486 540//522 471//501
f 537//519 540//522 541//523
f 515//485 469//487 468//503
f 542//524 541//523 540//522
f 516//486 470//502 469//487
f 516//486 542//524 540//522
f 521//500 515//485 468//503
f 520//498 521//500 466//497
f 519//496 520//498 465//494
f 518//493 519//496 463//492
f 517//490 461//489 543//525
f 517//490 518//493 460//491
f 544//526 517//490 543//525
f 545//527 544//526 543//525
f 546//528 543//525 547//529
f 545//527 543//525 546//528
f 548//530 546//528 547//529
f 549//531 547//529 550//532
f 548//530 547//529 549//531
f 551//533 550//532 552//534
f 549//531 550//532 551//533
f 524//506 552//534 553//535
f 551//533 552//534 524//506
f 514//484 512//482 524//506
f 524//506 553//535 554//536
f 524//506 554//536 514//484
f 516//486 515//485 542//524
f 555//537 542//524 515//485
f 542//524 555//537 541//523
f 556//538 541//523 555//537
f 541//523 556//538 537//519
f 557//539 537//519 556//538
f 537//519 557//539 535//517
f 558//540 535//517 557//539
f 515//485 521//500 555//537
f 559//541 555//537 521//500
f 521//500 520//498 559//541
f 560//542 559//541 520//498
f 555//537 559//541 556//538
f 561//543 556//538 559//541
f 556//538 561//543 557//539
f 562//544 557//539 561//543
f 557//539 562//544 558//540
f 563//545 558//540 562//544
f 559//541 560//542 561//543
f 564//546 561//543 560//542
f 561//543 564//546 562//544
f 564//546 563//545 562//544
f 565//547 563//545 564//546
f 520//498 519//496 560//542
f 566//548 560//542 519//496
f 519//496 518//493 566//548
f 567//549 566//548 518//493
f 560//542 566//548 564//546
f 568//550 564//546 566//548
f 564//546 568//550 565//547
f 569//551 565//547 568//550
f 566//548 567//549 568//550
f 570//552 568//550 567//549
f 568//550 570//552 569//551
f 571//553 569//551 570//552
f 518//493 517//490 567//549
f 544//526 567//549 517//490
f 567//549 544//526 570//552
f 545//527 570//552 544//526
f 570//552 545//527 571//553
f 546//528 571//553 545//527
f 538//520 535//517 532//514
f 572//554 532//514 535//517
f 532//514 572//554 531//513
f 573//555 531//513 572//554
f 531//513 573//555 530//512
f 574//556 530//512 573//555
f 535//517 558//540 572//554
f 575//557 572//554 558//540
f 572//554 575//557 573//555
f 576//558 573//555 575//557
f 573//555 576//558 574//556
f 577//559 574//556 576//558
f 530//512 574//556 528//510
f 578//560 528//510 574//556
f 574//556 577//559 578//560
f 579//561 578//560 577//559
f 558//540 563//545 575//557
f 580//562 575//557 563//545
f 575//557 580//562 576//558
f 580//562 577//559 576//558
f 581//563 577//559 580//562
f 563//545 565//547 580//562
f 582//564 580//562 565//547
f 580//562 582//564 581//563
f 583//565 581//563 582//564
f 577//559 581//563 579//561
f 584//566 579//561 581//563
f 581//563 583//565 584//566
f 585//567 584//566 583//565
f 528//510 578//560 526//508
f 525//507 526//508 578//560
f 578//560 579//561 525//507
f 586//568 525//507 579//561
f 525//507 586//568 499//469
f 502//472 499//469 586//568
f 579//561 584//566 586//568
f 587//569 586//568 584//566
f 584//566 585//567 587//569
f 588//570 587//569 585//567
f 586//568 587//569 502//472
f 505//475 502//472 587//569
f 587//569 588//570 505//475
f 507//477 505//475 588//570
f 565//547 569//551 582//564
f 589//571 582//564 569//551
f 582//564 589//571 583//565
f 590//572 583//565 589//571
f 569//551 571//553 589//571
f 591//573 589//571 571//553
f 589//571 591//573 590//572
f 592//574 590//572 591//573
f 583//565 590//572 585//567
f 593//575 585//567 590//572
f 590//572 592//574 593//575
f 594//576 593//575 592//574
f 571//553 546//528 591//573
f 548//530 591//573 546//528
f 591//573 548//530 592//574
f 549//531 592//574 548//530
f 592//574 549//531 594//576
f 551//533 594//576 549//531
f 585//567 593//575 588//570
f 595//577 588//570 593//575
f 593//575 594//576 595//577
f 523//505 595//577 594//576
f 588//570 595//577 507//477
f 510//480 507//477 595//577
f 595//577 523//505 510//480
f 512//482 510//480 523//505
f 594//576 551//533 523//505
f 524//506 523//505 551//533
f 522//504 596//578 597//579
f 522//504 498//468 596//578
f 598//580 599//581 476//582
f 472//583 471//501 600//583
f 474//584 473//585 601//586
f 474//584 598//580 475//587
f 479//588 478//589 599//581
f 599//581 478//589 477//590
f 602//591 603//592 604//593
f 605//594 606//595 607//596
f 605//594 604//593 606//595
f 602//591 604//593 605//594
f 607//596 606//595 608//597
f 609//598 608//597 610//599
f 607//596 608//597 609//598
f 611//600 609//598 610//599
f 473//585 472//583 600//583
f 599//581 612//601 479//588
f 613//602 540//522 539//521
f 614//603 610//599 612//601
f 611//600 610//599 614//603
f 598//580 476//582 475//587
f 615//590 614//603 612//601
f 599//581 477//590 476//582
f 599//581 615//590 612//601
f 616//604 598//580 474//584
f 601//586 616//604 474//584
f 600//583 471//501 540//522
f 600//583 601//586 473//585
f 617//583 600//583 540//522
f 618//605 617//583 540//522
f 618//605 540//522 613//602
f 619//606 536//518 534//516
f 613//602 539//521 536//518
f 613//602 536//518 619//606
f 620//607 534//516 533//515
f 619//606 534//516 620//607
f 621//608 529//511 527//509
f 622//609 533//515 529//511
f 620//607 533//515 622//609
f 623//610 622//609 529//511
f 621//608 623//610 529//511
f 624//611 527//509 522//504
f 621//608 527//509 624//611
f 625//612 603//592 602//591
f 626//613 625//612 602//591
f 627//614 626//613 602//591
f 628//615 627//614 602//591
f 629//616 627//614 628//615
f 630//617 629//616 628//615
f 630//617 628//615 631//618
f 632//619 630//617 631//618
f 632//619 631//618 633//620
f 597//579 632//619 633//620
f 597//579 633//620 624//611
f 624//611 522//504 597//579
f 599//581 598//580 615//590
f 634//621 615//590 598//580
f 615//590 634//621 614//603
f 635//622 614//603 634//621
f 614//603 635//622 611//600
f 636//623 611//600 635//622
f 598//580 616//604 634//621
f 637//604 634//621 616//604
f 616//604 601//586 637//604
f 638//586 637//604 601//586
f 634//621 637//604 635//622
f 639//624 635//622 637//604
f 635//622 639//624 636//623
f 640//625 636//623 639//624
f 637//604 638//586 639//624
f 641//626 639//624 638//586
f 639//624 641//626 640//625
f 642//627 640//625 643//628
f 643//628 640//625 641//626
f 601//586 600//583 638//586
f 617//583 638//586 600//583
f 638//586 617//583 641//626
f 618//605 641//626 617//583
f 641//626 618//605 643//628
f 613//602 643//628 618//605
f 643//628 613//602 642//627
f 619//606 642//627 613//602
f 611//600 636//623 609//598
f 644//629 609//598 636//623
f 609//598 644//629 607//596
f 645//630 607//596 644//629
f 607//596 645//630 605//594
f 646//631 605//594 645//630
f 605//594 646//631 602//591
f 628//615 602//591 646//631
f 636//623 640//625 644//629
f 647//632 644//629 640//625
f 644//629 647//632 645//630
f 648//633 645//630 647//632
f 640//625 642//627 647//632
f 649//634 647//632 642//627
f 647//632 649//634 648//633
f 650//635 648//633 651//636
f 651//636 648//633 649//634
f 645//630 648//633 646//631
f 652//637 646//631 648//633
f 648//633 650//635 652//637
f 653//638 652//637 650//635
f 642//627 619//606 649//634
f 620//607 649//634 619//606
f 649//634 620//607 651//636
f 622//609 651//636 620//607
f 651//636 622//609 650//635
f 623//610 650//635 622//609
f 650//635 623//610 653//638
f 621//608 653//638 623//610
f 646//631 652//637 628//615
f 631//618 628//615 652//637
f 652//637 653//638 631//618
f 633//620 631//618 653//638
f 653//638 621//608 633//620
f 624//611 633//620 621//608
f 654//639 655//640 656//641
f 656//641 655//640 657//642
f 657//642 658//643 659//644
f 659//644 658//643 660//645
f 660//645 661//646 662//647
f 662//647 663//648 664//649
f 664//649 663//648 665//650
f 665//650 666//651 667//652
f 667//652 666//651 668//653
f 669//654 667//652 668//653
f 670//655 669//654 668//653
f 671//656 672//657 488//658
f 480//659 479//588 673//660
f 481//661 480//659 673//660
f 482//662 481//661 674//663
f 484//664 483//665 675//666
f 485//667 484//664 676//668
f 486//669 485//667 677//670
f 490//671 489//672 672//657
f 486//669 677//670 487//673
f 670//655 668//653 678//674
f 663//648 666//651 665//650
f 661//646 663//648 662//647
f 679//675 680//676 655//640
f 658//643 661//646 660//645
f 655//640 654//639 681//677
f 655//640 658//643 657//642
f 682//678 683//679 668//653
f 679//675 655//640 681//677
f 684//680 681//677 685//681
f 679//675 681//677 684//680
f 686//682 685//681 687//683
f 684//680 685//681 686//682
f 688//684 687//683 689//685
f 686//682 687//683 688//684
f 690//686 688//684 689//685
f 691//687 690//686 689//685
f 483//665 482//662 675//666
f 672//657 692//688 490//671
f 693//689 689//685 692//688
f 691//687 689//685 693//689
f 671//656 488//658 487//673
f 694//690 693//689 692//688
f 672//657 489//672 488//658
f 672//657 694//690 692//688
f 677//670 671//656 487//673
f 676//668 677//670 485//667
f 675//666 676//668 484//664
f 674//663 675//666 482//662
f 673//660 479//588 612//601
f 673//660 674//663 481//661
f 695//691 673//660 612//601
f 696//692 695//691 612//601
f 697//693 610//599 608//597
f 696//692 612//601 610//599
f 696//692 610//599 698//694
f 697//693 698//694 610//599
f 699//695 608//597 606//595
f 697//693 608//597 699//695
f 700//696 606//595 604//593
f 699//695 606//595 700//696
f 683//679 604//593 603//592
f 700//696 604//593 683//679
f 678//674 668//653 683//679
f 683//679 603//592 678//674
f 672//657 671//656 694//690
f 701//697 694//690 671//656
f 694//690 701//697 693//689
f 702//698 693//689 701//697
f 693//689 702//698 691//687
f 703//699 691//687 702//698
f 671//656 677//670 701//697
f 704//700 701//697 677//670
f 677//670 676//668 704//700
f 705//701 704//700 676//668
f 701//697 704//700 702//698
f 706//702 702//698 704//700
f 702//698 706//702 703//699
f 707//703 703//699 706//702
f 704//700 705//701 706//702
f 708//704 706//702 705//701
f 706//702 708//704 707//703
f 709//705 707//703 708//704
f 676//668 675//666 705//701
f 710//706 705//701 675//666
f 675//666 674//663 710//706
f 711//707 710//706 674//663
f 705//701 710//706 708//704
f 712//708 708//704 710//706
f 708//704 712//708 709//705
f 713//709 709//705 712//708
f 710//706 711//707 712//708
f 711//707 713//709 712//708
f 714//710 713//709 711//707
f 674//663 673//660 711//707
f 695//691 711//707 673//660
f 711//707 695//691 714//710
f 698//694 714//710 696//692
f 696//692 714//710 695//691
f 690//686 691//687 688//684
f 715//711 688//684 691//687
f 688//684 715//711 686//682
f 716//712 686//682 715//711
f 691//687 703//699 715//711
f 717//713 715//711 703//699
f 715//711 717//713 716//712
f 718//714 716//712 717//713
f 686//682 716//712 684//680
f 719//715 684//680 716//712
f 716//712 718//714 719//715
f 720//716 719//715 718//714
f 703//699 707//703 717//713
f 721//717 717//713 707//703
f 717//713 721//717 718//714
f 722//718 718//714 721//717
f 707//703 709//705 721//717
f 723//719 721//717 709//705
f 721//717 723//719 722//718
f 724//720 722//718 723//719
f 718//714 722//718 720//716
f 725//721 720//716 722//718
f 722//718 724//720 725//721
f 726//722 725//721 724//720
f 684//680 719//715 679//675
f 680//676 679//675 719//715
f 719//715 720//716 680//676
f 727//723 680//676 720//716
f 680//676 727//723 655//640
f 658//643 655//640 727//723
f 720//716 725//721 727//723
f 728//724 727//723 725//721
f 725//721 726//722 728//724
f 729//725 728//724 726//722
f 727//723 728//724 658//643
f 661//646 658//643 728//724
f 728//724 729//725 661//646
f 663//648 661//646 729//725
f 709//705 713//709 723//719
f 730//726 723//719 713//709
f 723//719 730//726 724//720
f 731//727 724//720 730//726
f 713//709 714//710 730//726
f 732//728 730//726 714//710
f 730//726 732//728 731//727
f 733//729 731//727 732//728
f 724//720 731//727 726//722
f 734//730 726//722 731//727
f 731//727 733//729 734//730
f 735//731 734//730 733//729
f 714//710 698//694 732//728
f 697//693 732//728 698//694
f 732//728 697//693 733//729
f 699//695 733//729 697//693
f 733//729 699//695 735//731
f 700//696 735//731 699//695
f 726//722 734//730 729//725
f 736//732 729//725 734//730
f 734//730 735//731 736//732
f 682//678 736//732 735//731
f 729//725 736//732 663//648
f 666//651 663//648 736//732
f 736//732 682//678 666//651
f 668//653 666//651 682//678
f 735//731 700//696 682//678
f 683//679 682//678 700//696
f 737//733 738//734 739//735
f 739//735 738//734 740//736
f 738//734 654//639 741//737
f 737//733 742//738 743//739
f 744//740 490//671 692//688
f 492//741 491//740 744//740
f 745//740 746//742 744//740
f 747//743 748//744 749//745
f 747//743 749//745 750//746
f 742//738 748//744 751//747
f 738//734 741//737 740//736
f 744//740 491//740 490//671
f 744//740 746//742 492//741
f 752//748 746//742 745//740
f 745//740 744//740 692//688
f 752//748 745//740 692//688
f 747//743 689//685 687//683
f 747//743 750//746 689//685
f 751//747 687//683 685//681
f 743//739 685//681 681//677
f 738//734 681//677 654//639
f 752//748 749//745 746//742
f 750//746 749//745 752//748
f 752//748 692//688 689//685
f 752//748 689//685 750//746
f 751//747 748//744 747//743
f 747//743 687//683 751//747
f 743//739 742//738 751//747
f 751//747 685//681 743//739
f 738//734 737//733 743//739
f 743//739 681//677 738//734
f 753//749 754//750 553//535
f 753//749 755//751 754//750
f 756//752 757//753 755//751
f 756//752 758//754 757//753
f 759//755 760//756 758//754
f 759//755 739//735 760//756
f 492//741 761//757 493//758
f 494//759 762//760 495//761
f 461//489 497//762 763//763
f 762//760 496//764 495//761
f 764//765 749//745 765//766
f 766//767 748//744 742//738
f 767//768 742//738 737//733
f 766//767 742//738 767//768
f 759//755 737//733 739//735
f 767//768 737//733 759//755
f 756//752 759//755 758//754
f 753//749 553//535 552//534
f 753//749 756//752 755//751
f 768//769 552//534 550//532
f 753//749 552//534 768//769
f 769//770 550//532 547//529
f 768//769 550//532 769//770
f 770//771 547//529 543//525
f 769//770 547//529 770//771
f 493//758 761//757 494//759
f 763//763 543//525 461//489
f 770//771 543//525 771//772
f 763//763 497//762 496//764
f 763//763 771//772 543//525
f 762//760 763//763 496//764
f 761//757 492//741 746//742
f 761//757 762//760 494//759
f 772//773 746//742 773//774
f 772//773 761//757 746//742
f 765//766 749//745 748//744
f 773//774 746//742 749//745
f 773//774 749//745 764//765
f 765//766 748//744 766//767
f 763//763 762//760 771//772
f 774//775 771//772 762//760
f 771//772 774//775 770//771
f 775//776 770//771 776//777
f 776//777 770//771 774//775
f 762//760 761//757 774//775
f 772//773 774//775 761//757
f 774//775 772//773 776//777
f 773//774 776//777 772//773
f 776//777 773//774 775//776
f 764//765 775//776 773//774
f 770//771 775//776 769//770
f 777//778 769//770 778//779
f 778//779 769//770 775//776
f 769//770 777//778 768//769
f 779//780 768//769 777//778
f 768//769 779//780 753//749
f 756//752 753//749 779//780
f 775//776 764//765 778//779
f 765//766 778//779 764//765
f 778//779 765//766 777//778
f 766//767 777//778 765//766
f 777//778 766//767 779//780
f 767//768 779//780 766//767
f 779//780 767//768 756//752
f 759//755 756//752 767//768
f 514//35 554//35 553//35
f 513//35 514//35 553//35
f 757//35 513//35 553//35
f 508//35 511//35 513//35
f 508//35 509//781 511//35
f 503//35 508//35 513//35
f 504//781 506//781 508//35
f 503//35 504//781 508//35
f 629//35 503//35 513//35
f 498//35 501//782 503//35
f 498//35 500//782 501//782
f 629//35 498//35 503//35
f 630//35 596//35 498//35
f 632//781 597//783 596//35
f 630//35 632//781 596//35
f 629//35 630//35 498//35
f 757//35 629//35 513//35
f 603//35 627//35 629//35
f 625//35 626//35 627//35
f 603//35 625//35 627//35
f 669//35 603//35 629//35
f 670//35 678//35 603//35
f 669//35 670//35 603//35
f 659//35 669//35 629//35
f 664//35 667//35 669//35
f 664//35 665//35 667//35
f 659//35 664//35 669//35
f 660//35 662//35 664//35
f 659//35 660//35 664//35
f 757//35 659//35 629//35
f 654//35 657//35 659//35
f 654//35 656//781 657//35
f 741//781 654//35 659//35
f 740//35 741//781 659//35
f 757//35 740//35 659//35
f 757//35 739//35 740//35
f 758//35 760//35 739//35
f 757//35 758//35 739//35
f 755//35 757//35 553//35
f 754//35 755//35 553//35
f 780//39 781//39 782//39
f 783//39 782//39 781//39
