# Blender v3.0.0 OBJ File: ''
# www.blender.org
mtllib anubis_wing.mtl
o cad_fibra_sensore_Normalicorrette
v -0.555975 0.069197 7.392508
v -0.555975 0.069196 2.446011
v -0.555975 0.049410 2.446011
v -0.555975 0.049411 7.392508
v -0.308650 0.069196 2.446011
v -0.308650 0.069197 7.392508
v -0.308650 0.049411 7.392508
v -0.308650 0.049410 2.446011
v -0.308650 0.069196 2.446011
v -0.308650 0.049410 2.446011
v -0.555975 0.069196 2.446011
v -0.555975 0.049410 2.446011
v -0.932471 0.019871 -7.348055
v -0.414261 -0.124329 -7.348055
v -0.720006 -0.103741 -7.348055
v -0.852849 -0.072952 -7.348055
v -0.891728 -0.057823 -7.348055
v -0.928492 -0.037827 -7.348055
v -0.941247 -0.027759 -7.348055
v -0.954945 -0.013204 -7.348055
v -0.950854 0.014546 -7.348055
v -0.956913 -0.010407 -7.348055
v -0.957200 0.008065 -7.348055
v -0.958140 -0.008199 -7.348055
v -0.959341 0.003037 -7.348055
v -0.959076 -0.005891 -7.348055
v -0.959862 -0.001017 -7.348055
v -0.959662 -0.003489 -7.348055
v -0.959730 0.001016 -7.348055
v -0.958556 0.005395 -7.348055
v -0.955295 0.010674 -7.348055
v -0.947432 0.016422 -7.348055
v -0.942305 0.018217 -7.348055
v 0.675767 -0.001990 -7.348054
v -0.019012 -0.105195 -7.348055
v 1.215323 -0.002162 0.022226
v 1.310014 -0.002258 3.093177
v 1.395183 -0.002365 7.392508
v 0.704884 0.003537 7.392508
v 0.015762 0.029225 7.392508
v -0.673647 0.053780 7.392508
v -1.018538 0.057277 7.392508
v -1.190974 0.050100 7.392508
v -1.233877 0.045666 7.392508
v -1.275427 0.037161 7.392508
v -1.297778 0.034653 7.392508
v -1.309259 0.033279 7.392508
v -1.320442 0.030772 7.392508
v -1.330703 0.026285 7.392508
v -1.339247 0.019298 7.392508
v -1.342582 0.014874 7.392508
v -1.345120 0.009943 7.392508
v -1.346725 0.004671 7.392508
v -1.346356 -0.007575 7.392508
v -1.167855 -0.121339 7.392508
v -1.339904 -0.020015 7.392508
v -1.343753 -0.014023 7.392508
v -1.315929 -0.045694 7.392508
v -1.335346 -0.025620 7.392508
v -1.269923 -0.077179 7.392508
v -0.851933 -0.185556 7.392508
v -0.529434 -0.206295 7.392508
v 0.116122 -0.184971 7.392508
v 0.758271 -0.113912 7.392508
v -0.555975 0.069197 7.392508
v -0.308650 0.069197 7.392508
v -0.555975 0.049411 7.392508
v -0.308650 0.049411 7.392508
vn -1.0000 0.0000 0.0000
vn 0.0000 1.0000 -0.0000
vn 1.0000 0.0000 0.0000
vn -0.0000 -1.0000 0.0000
vn 0.0000 0.0000 -1.0000
vn -0.0301 0.0564 -0.9980
vn -0.0001 0.0000 -1.0000
vn 0.0009 0.0000 -1.0000
vn -0.0002 0.0000 -1.0000
vn -0.0010 0.0000 -1.0000
vn -0.0032 0.0000 -1.0000
vn -0.0019 0.0000 -1.0000
vn -0.0007 0.0000 -1.0000
vn -0.6020 0.3129 -0.7347
vn 0.8273 -0.5613 -0.0213
vn -0.0077 0.9881 -0.1537
vn 0.8449 0.0689 0.5305
vn 0.1170 -0.7471 0.6543
vn 0.2357 0.0144 0.9717
vn 0.6830 0.0377 -0.7294
vn 0.0443 0.7031 0.7098
vn -0.9997 0.0005 -0.0225
vn -0.9868 -0.1607 -0.0220
vn -0.9506 -0.3103 -0.0103
vn -0.2694 -0.0595 -0.9612
vn 0.5400 0.8019 -0.2555
vn -0.9687 0.2481 -0.0106
vn -0.9915 0.1280 -0.0223
vn 0.0234 0.7073 0.7066
vn -0.1068 0.9943 0.0007
vn 0.1068 -0.9943 -0.0007
vn -0.0235 -0.7072 -0.7066
vn -0.0099 -0.7110 -0.7031
vn -0.0311 0.7133 0.7001
vn 0.0099 0.7110 0.7031
vn -0.0826 0.7102 0.6991
vn -0.0650 0.7162 0.6948
vn -0.1087 0.6899 0.7157
vn -0.1004 0.7015 0.7056
vn -0.1357 0.7068 0.6943
vn -0.2559 0.9667 0.0008
vn -0.2378 0.6904 0.6832
vn -0.4132 0.9106 0.0010
vn -0.3873 0.6306 0.6725
vn -0.4814 0.5572 0.6767
vn -0.6065 0.4098 0.6813
vn -0.8534 0.5212 0.0012
vn -0.6692 0.3006 0.6795
vn -0.9251 0.3798 0.0017
vn -0.4216 -0.9068 0.0005
vn -0.2444 -0.6891 0.6822
vn -0.3597 -0.6509 0.6685
vn -0.3176 -0.9482 0.0015
vn -0.5540 -0.8325 0.0009
vn -0.6847 -0.7288 0.0013
vn -0.5552 -0.4930 0.6698
vn -0.7912 -0.6116 0.0018
vn -0.5043 -0.5991 0.6219
vn -0.6124 -0.4442 0.6540
vn -0.8480 -0.5300 0.0008
vn -0.6600 -0.3410 0.6694
vn -0.9002 -0.4356 0.0008
vn -0.1552 -0.9879 0.0002
vn -0.1269 -0.7122 0.6904
vn -0.0114 -0.7196 0.6943
vn -0.0022 -1.0000 -0.0004
vn 0.0369 -0.7165 0.6966
usemtl None
s 1
f 1//1 2//1 3//1
f 1//1 3//1 4//1
f 5//2 2//2 6//2
f 1//2 6//2 2//2
f 7//3 8//3 5//3
f 7//3 5//3 6//3
f 3//4 8//4 4//4
f 7//4 4//4 8//4
f 9//5 10//5 11//5
f 12//5 11//5 10//5
f 13//5 14//5 15//5
f 13//5 15//5 16//5
f 13//5 16//5 17//5
f 13//5 17//5 18//5
f 13//5 18//5 19//5
f 13//5 19//5 20//5
f 21//6 20//5 22//7
f 23//7 22//7 24//8
f 25//9 24//8 26//10
f 27//11 26//10 28//5
f 29//12 26//10 27//11
f 25//9 26//10 29//12
f 30//13 24//8 25//9
f 23//7 24//8 30//13
f 31//14 22//7 23//7
f 32//7 20//5 21//6
f 33//7 20//5 32//7
f 13//5 20//5 33//7
f 13//5 35//15 14//5
f 13//5 34//16 35//15
f 38//17 64//18 37//19
f 36//20 34//16 37//19
f 38//17 37//19 39//21
f 27//22 28//23 26//24 54//25 53//26 25//27 29//28
f 34//16 39//21 37//19
f 40//29 39//21 34//16
f 13//30 40//29 34//16
f 13//31 40//32 41//33
f 13//30 42//34 41//35
f 13//30 43//36 42//34
f 13//30 44//37 43//36
f 13//30 45//38 44//37
f 13//30 46//39 45//38
f 13//30 47//40 46//39
f 33//41 47//40 13//30
f 33//41 48//42 47//40
f 32//43 48//42 33//41
f 49//44 48//42 32//43
f 21//6 49//44 32//43
f 50//45 49//44 21//6 22//7 31//14
f 51//46 50//45 31//14
f 23//47 51//46 31//14
f 52//48 51//46 23//47
f 30//49 52//48 23//47
f 25//27 52//48 30//49
f 25//27 53//26 52//48
f 17//50 55//51 60//52
f 55//51 17//50 16//53
f 17//50 60//52 18//54
f 19//55 59//56 20//57
f 60//52 58//58 18//54
f 20//57 59//56 56//59
f 58//58 19//55 18//54
f 22//60 20//57 56//59
f 59//56 19//55 58//58
f 57//61 22//60 56//59
f 24//62 22//60 57//61
f 54//25 24//62 57//61
f 54//25 26//24 24//62
f 37//19 35//15 36//20
f 15//63 55//51 16//53
f 15//63 61//64 55//51
f 62//65 61//64 15//63
f 14//66 62//65 15//63
f 63//67 62//65 14//66
f 35//15 63//67 14//66
f 35//15 64//18 63//67
f 64//18 35//15 37//19
f 65//5 66//5 67//5
f 68//5 67//5 66//5
f 39//21 64//18 38//17
f 39//21 40//29 63//67 64//18
f 63//67 40//29 62//65
f 40//29 41//35 62//65
f 62//65 41//35 61//64
f 41//35 42//34 61//64
f 61//64 42//34 55//51
f 42//34 43//36 55//51
f 44//37 55//51 43//36
f 55//51 44//37 60//52
f 60//52 44//37 58//58
f 44//37 45//38 58//58
f 46//39 58//58 45//38
f 47//40 58//58 46//39
f 58//58 47//40 59//56
f 59//56 47//40 56//59
f 47//40 48//42 56//59
f 56//59 49//44 57//61
f 49//44 56//59 48//42
f 57//61 49//44 54//25
f 49//44 50//45 54//25
f 51//46 54//25 50//45
f 53//26 54//25 52//48
f 52//48 54//25 51//46
f 34//16 36//20 35//15
